<svg width="284" height="432" viewBox="0 0 284 432" fill="none" xmlns="http://www.w3.org/2000/svg">
<g clip-path="url(#clip0_671_2370)">
<path d="M65 362C84.3261 362 100 346.339 100 327C100 307.661 84.3385 292 65 292C45.6615 292 30 307.674 30 327C30 346.326 45.6739 362 65 362Z" fill="#E8F4FF"/>
<path d="M74.9139 343.896H55.0863V316.84H74.8597V343.896H74.9139ZM56.1639 342.855H73.8905V317.88H56.1639V342.855Z" fill="#50DBBA" stroke="#50DBBA" stroke-width="0.5"/>
<path d="M52.9312 342.857H77.0691V343.898H52.9312V342.857Z" fill="#50DBBA" stroke="#50DBBA" stroke-width="0.5"/>
<path d="M72.2735 317.879H57.7261V313.881H72.3271V317.879H72.2735ZM58.7501 316.838H71.2501V314.976H58.7501V316.838Z" fill="#50DBBA" stroke="#50DBBA" stroke-width="0.5"/>
<path d="M67.3708 310.104H68.395V314.43H67.3708V310.104Z" fill="#50DBBA" stroke="#50DBBA" stroke-width="0.5"/>
<path d="M62.1985 311.143H63.2226V314.429H62.1985V311.143Z" fill="#50DBBA" stroke="#50DBBA" stroke-width="0.5"/>
<path d="M68.664 343.894H61.3364V336.227H68.6098V343.894H68.664ZM62.414 342.854H67.6403V337.267H62.414V342.854Z" fill="#50DBBA" stroke="#50DBBA" stroke-width="0.5"/>
<path d="M61.7131 323.522H57.7261V319.469H61.7131V323.522ZM58.7498 322.481H60.6894V320.509H58.7498V322.481Z" fill="#50DBBA" stroke="#50DBBA" stroke-width="0.5"/>
<path d="M66.9939 323.522H63.0068V319.469H66.9939V323.522ZM64.0305 322.481H65.9702V320.509H64.0305V322.481Z" fill="#50DBBA" stroke="#50DBBA" stroke-width="0.5"/>
<path d="M72.2734 323.522H68.2864V319.469H72.2734V323.522ZM69.364 322.481H71.3036V320.509H69.364V322.481Z" fill="#50DBBA" stroke="#50DBBA" stroke-width="0.5"/>
<path d="M61.7131 328.944H57.7261V324.891H61.7131V328.944ZM58.7498 327.903H60.6894V325.931H58.7498V327.903Z" fill="#50DBBA" stroke="#50DBBA" stroke-width="0.5"/>
<path d="M66.9939 328.944H63.0068V324.891H66.9939V328.944ZM64.0305 327.903H65.9702V325.931H64.0305V327.903Z" fill="#50DBBA" stroke="#50DBBA" stroke-width="0.5"/>
<path d="M72.2734 328.944H68.2864V324.891H72.2734V328.944ZM69.364 327.903H71.3036V325.931H69.364V327.903Z" fill="#50DBBA" stroke="#50DBBA" stroke-width="0.5"/>
<path d="M61.7131 334.367H57.7261V330.314H61.7131V334.367ZM58.7498 333.327H60.6894V331.355H58.7498V333.327Z" fill="#50DBBA" stroke="#50DBBA" stroke-width="0.5"/>
<path d="M66.9939 334.367H63.0068V330.314H66.9939V334.367ZM64.0305 333.327H65.9702V331.355H64.0305V333.327Z" fill="#50DBBA" stroke="#50DBBA" stroke-width="0.5"/>
<path d="M72.2734 334.367H68.2864V330.314H72.2734V334.367ZM69.364 333.327H71.3036V331.355H69.364V333.327Z" fill="#50DBBA" stroke="#50DBBA" stroke-width="0.5"/>
<rect x="107" width="70" height="70" rx="35" fill="#F8F9FF"/>
<path d="M142 70C161.334 70 177 54.3338 177 35C177 15.6662 161.334 0 142 0C122.666 0 107 15.6662 107 35C107 54.3338 122.666 70 142 70Z" fill="#E8F4FF"/>
<path d="M134.74 25.2074C138.052 21.0243 141.435 17.993 141.703 17.7547C141.867 17.6103 142.132 17.6104 142.296 17.7549C142.563 17.9923 145.948 21.0239 149.26 25.2075C150.916 27.2999 152.542 29.6647 153.751 32.0985C154.962 34.5381 155.733 37.002 155.733 39.3055C155.733 46.4652 149.606 52.3534 142 52.3534C134.393 52.3534 128.267 46.4652 128.267 39.3055C128.267 37.002 129.038 34.5381 130.249 32.0985C131.458 29.6646 133.084 27.2998 134.74 25.2074ZM132.113 37.594C132.113 43.5845 137.107 48.4223 143.207 48.4223C144.229 48.4223 145.121 47.6227 145.121 46.5631C145.121 45.503 144.229 44.7044 143.207 44.7044C139.187 44.7044 135.94 41.5002 135.94 37.594C135.94 36.5339 135.049 35.7353 134.026 35.7353C133.004 35.7353 132.113 36.5339 132.113 37.594Z" stroke="#62BDFD" stroke-width="1.5"/>
<path d="M219 140C238.326 140 254 124.339 254 105C254 85.6615 238.338 70 219 70C199.661 70 184 85.6739 184 105C184 124.326 199.674 140 219 140Z" fill="#E8F4FF"/>
<path d="M235.029 108.916L229.713 110.257L226.674 108.527L228.8 107.964H228.8C229.177 107.867 229.402 107.489 229.305 107.119C229.207 106.748 228.822 106.526 228.446 106.623L224.997 107.682L223.321 106.743V103.31L224.997 102.318L228.446 103.217C228.504 103.228 228.565 103.228 228.623 103.217C228.933 103.216 229.206 103.014 229.291 102.72C229.337 102.548 229.31 102.365 229.218 102.211C229.126 102.058 228.976 101.947 228.8 101.902L226.674 101.339L229.714 99.636L235.03 100.977H235.207C235.517 100.977 235.79 100.774 235.874 100.481C235.92 100.308 235.894 100.125 235.802 99.9715C235.71 99.818 235.559 99.7069 235.384 99.6629L231.39 98.6036L234.689 96.7262L234.689 96.7259C234.971 96.5239 235.053 96.144 234.877 95.8468C234.701 95.5495 234.326 95.4313 234.007 95.5729L230.708 97.4368L231.785 93.5078V93.5075C231.883 93.1373 231.657 92.7592 231.281 92.6628C230.905 92.5665 230.52 92.7886 230.422 93.1591L228.991 98.389L225.951 100.119L226.524 98.0268C226.569 97.8544 226.543 97.6712 226.451 97.5176C226.359 97.3641 226.209 97.253 226.033 97.2087C225.86 97.1558 225.671 97.1761 225.514 97.2653C225.356 97.3542 225.243 97.5039 225.202 97.6781L224.275 101.071L222.599 102.023L219.681 100.468V98.5766L222.203 96.0823C222.467 95.8231 222.467 95.4028 222.203 95.1436C221.94 94.8844 221.512 94.8844 221.249 95.1436L219.681 96.6723V93.2126L223.566 89.3773C223.83 89.1181 223.83 88.6978 223.566 88.4386C223.303 88.1794 222.875 88.1794 222.612 88.4386L219.681 91.3083V87.567C219.681 87.1967 219.376 86.8965 219 86.8965C218.623 86.8965 218.318 87.1967 218.318 87.567V91.3083L215.388 88.4386C215.124 88.1794 214.697 88.1794 214.434 88.4386C214.17 88.6978 214.17 89.1181 214.434 89.3773L218.318 93.2126V96.6723L216.751 95.1436C216.487 94.8844 216.06 94.8844 215.797 95.1436C215.533 95.4028 215.533 95.8231 215.797 96.0823L218.318 98.5766V100.468L215.36 102.157L213.684 101.205L212.757 97.8125V97.8122C212.716 97.638 212.603 97.4883 212.445 97.3994C212.287 97.3102 212.099 97.2899 211.926 97.3428C211.75 97.3871 211.6 97.4982 211.508 97.6517C211.415 97.8053 211.389 97.9885 211.435 98.1609L212.007 100.253L208.968 98.5231L207.536 93.2932C207.439 92.9227 207.054 92.7006 206.678 92.797C206.301 92.8933 206.076 93.2714 206.173 93.6416L207.25 97.5706L204.006 95.707C203.688 95.5654 203.312 95.6836 203.136 95.9809C202.961 96.2781 203.042 96.658 203.325 96.86L206.623 98.7374L202.643 99.797C202.467 99.841 202.317 99.9521 202.225 100.106C202.133 100.259 202.107 100.442 202.152 100.615C202.237 100.908 202.51 101.111 202.82 101.111H202.997L208.313 99.7701L211.353 101.5L209.226 102.063H209.227C209.051 102.107 208.901 102.219 208.809 102.372C208.717 102.525 208.69 102.709 208.736 102.881C208.821 103.175 209.094 103.377 209.404 103.377C209.462 103.389 209.523 103.389 209.581 103.377L213.002 102.318L214.679 103.257V106.636L213.002 107.682L209.554 106.783C209.177 106.687 208.793 106.909 208.695 107.28C208.597 107.65 208.823 108.028 209.2 108.124L211.326 108.688L208.286 110.364L202.97 109.023C202.607 108.936 202.237 109.141 202.125 109.492C202.08 109.665 202.106 109.848 202.198 110.001C202.29 110.155 202.44 110.266 202.616 110.31L206.609 111.37L203.311 113.247H203.311C203.048 113.401 202.921 113.707 203 113.998C203.08 114.288 203.346 114.491 203.652 114.494C203.79 114.469 203.915 114.398 204.006 114.293L207.305 112.429L206.228 116.358L206.228 116.358C206.182 116.531 206.209 116.714 206.301 116.867C206.393 117.021 206.543 117.132 206.719 117.176H206.896C207.203 117.174 207.47 116.971 207.55 116.68L208.981 111.45L212.021 109.72L211.448 111.812L211.449 111.812C211.403 111.985 211.429 112.168 211.521 112.321C211.613 112.475 211.764 112.586 211.939 112.63C211.997 112.644 212.058 112.644 212.116 112.63C212.423 112.629 212.691 112.425 212.771 112.134L213.697 108.742L215.374 107.789L218.332 109.479V111.37L215.81 113.864L215.81 113.864C215.547 114.123 215.547 114.543 215.81 114.803C216.074 115.062 216.501 115.062 216.764 114.803L218.332 113.274V116.734L214.447 120.569C214.184 120.828 214.184 121.248 214.447 121.508C214.711 121.767 215.138 121.767 215.401 121.508L218.332 118.638V122.433C218.332 122.803 218.637 123.103 219.014 123.103C219.39 123.103 219.695 122.803 219.695 122.433V118.692L222.626 121.561C222.749 121.691 222.922 121.764 223.103 121.764C223.284 121.764 223.456 121.691 223.58 121.561C223.712 121.44 223.786 121.27 223.786 121.092C223.786 120.914 223.712 120.744 223.58 120.623L219.681 116.787V113.328L221.249 114.856C221.372 114.986 221.545 115.06 221.726 115.06C221.907 115.06 222.08 114.986 222.203 114.856C222.335 114.735 222.41 114.565 222.41 114.387C222.41 114.209 222.335 114.039 222.203 113.918L219.681 111.423V109.532L222.639 107.843L224.316 108.795L225.243 112.187V112.188C225.323 112.479 225.59 112.682 225.897 112.684C225.955 112.698 226.016 112.698 226.074 112.684C226.25 112.64 226.4 112.529 226.492 112.375C226.584 112.222 226.611 112.038 226.565 111.866L225.992 109.774L229.032 111.504L230.463 116.734H230.463C230.543 117.025 230.811 117.228 231.117 117.23H231.295C231.47 117.186 231.621 117.075 231.713 116.921C231.805 116.767 231.831 116.584 231.785 116.412L230.709 112.483L233.994 114.293C234.095 114.357 234.214 114.389 234.334 114.387C234.64 114.384 234.906 114.181 234.986 113.891C235.065 113.6 234.938 113.293 234.675 113.14L231.376 111.262L235.357 110.203C235.532 110.159 235.683 110.048 235.775 109.894C235.867 109.741 235.893 109.557 235.847 109.385C235.736 109.046 235.384 108.844 235.03 108.916L235.029 108.916ZM221.958 106.69L219 108.366L216.042 106.69V103.31L219 101.634L221.958 103.31V106.69Z" fill="#FB8273"/>
<path d="M249 251C268.33 251 284 235.33 284 216C284 196.67 268.33 181 249 181C229.67 181 214 196.67 214 216C214 235.33 229.67 251 249 251Z" fill="#E8F4FF"/>
<path fill-rule="evenodd" clip-rule="evenodd" d="M245.574 213.781C245.448 213.781 245.322 213.727 245.236 213.62C244.224 212.36 243.561 210.504 243.367 208.393C243.182 206.376 243.462 204.392 244.136 202.951C246.23 198.473 250.265 197.926 251.902 197.898C254.535 197.853 256.942 198.935 257.754 200.528C258.251 201.503 258.113 202.586 257.365 203.581C257.336 203.619 257.302 203.652 257.262 203.679C251.852 207.339 250.632 210.621 250.358 211.861C250.307 212.095 250.076 212.243 249.842 212.192C249.608 212.14 249.461 211.909 249.512 211.675C249.807 210.337 251.099 206.822 256.714 203.003C257.232 202.286 257.322 201.586 256.983 200.921C256.326 199.632 254.194 198.724 251.916 198.762C250.442 198.788 246.808 199.281 244.922 203.317C243.603 206.138 244.074 210.789 245.912 213.076C246.062 213.263 246.032 213.535 245.846 213.685C245.766 213.75 245.67 213.78 245.574 213.78L245.574 213.781Z" fill="#FB8273" stroke="#FB8273" stroke-width="0.5"/>
<path fill-rule="evenodd" clip-rule="evenodd" d="M249.007 212.098C248.668 212.098 248.327 212.142 247.992 212.232C246.985 212.501 246.144 213.147 245.624 214.049C245.103 214.951 244.965 216.001 245.235 217.007C245.792 219.084 247.933 220.32 250.009 219.764C252.086 219.208 253.322 217.066 252.766 214.989C252.497 213.983 251.852 213.142 250.95 212.622C250.349 212.275 249.682 212.098 249.007 212.098L249.007 212.098ZM249.001 220.763C246.897 220.763 244.968 219.358 244.398 217.231C244.068 216.002 244.238 214.717 244.874 213.615C245.51 212.513 246.538 211.724 247.767 211.395C248.996 211.065 250.28 211.235 251.383 211.871C252.485 212.507 253.273 213.535 253.603 214.764C254.283 217.302 252.771 219.92 250.234 220.6C249.822 220.71 249.408 220.763 249.002 220.763L249.001 220.763Z" fill="#FB8273" stroke="#FB8273" stroke-width="0.5"/>
<path fill-rule="evenodd" clip-rule="evenodd" d="M240.179 221.687C238.597 221.687 237.102 221.399 235.952 220.862C231.474 218.767 230.926 214.734 230.898 213.097C230.853 210.463 231.935 208.057 233.528 207.244C234.502 206.747 235.587 206.886 236.581 207.634C236.619 207.662 236.653 207.698 236.679 207.737C240.34 213.147 243.622 214.367 244.863 214.641C245.096 214.693 245.244 214.924 245.192 215.157C245.141 215.39 244.91 215.538 244.676 215.487C243.338 215.192 239.823 213.9 236.004 208.284C235.287 207.767 234.587 207.677 233.922 208.016C232.632 208.673 231.725 210.803 231.764 213.082C231.788 214.557 232.282 218.19 236.318 220.077C239.139 221.396 243.79 220.924 246.077 219.086C246.263 218.937 246.536 218.967 246.686 219.153C246.835 219.34 246.806 219.612 246.62 219.762C245.36 220.774 243.504 221.438 241.393 221.631C240.986 221.669 240.58 221.687 240.179 221.687L240.179 221.687Z" fill="#FB8273" stroke="#FB8273" stroke-width="0.5"/>
<path fill-rule="evenodd" clip-rule="evenodd" d="M245.94 234.102C243.369 234.102 241.041 233.032 240.245 231.47C239.749 230.496 239.887 229.411 240.635 228.417C240.664 228.379 240.698 228.346 240.738 228.319C246.148 224.659 247.368 221.377 247.642 220.136C247.694 219.902 247.924 219.755 248.158 219.806C248.392 219.857 248.539 220.089 248.488 220.322C248.194 221.66 246.901 225.176 241.286 228.994C240.768 229.711 240.678 230.412 241.017 231.077C241.675 232.366 243.804 233.273 246.084 233.235C247.558 233.21 251.191 232.716 253.079 228.68C254.397 225.86 253.926 221.208 252.088 218.921C251.938 218.735 251.968 218.462 252.154 218.312C252.341 218.163 252.614 218.192 252.763 218.378C253.775 219.638 254.439 221.494 254.633 223.606C254.818 225.623 254.537 227.606 253.863 229.047C251.769 233.525 247.735 234.073 246.097 234.101C246.045 234.102 245.992 234.102 245.94 234.102Z" fill="#FB8273" stroke="#FB8273" stroke-width="0.5"/>
<path fill-rule="evenodd" clip-rule="evenodd" d="M263.28 225.046C262.655 225.046 262.021 224.817 261.418 224.364C261.38 224.335 261.346 224.3 261.32 224.261C257.659 218.851 254.378 217.631 253.136 217.357C252.903 217.305 252.755 217.075 252.807 216.841C252.858 216.607 253.089 216.46 253.323 216.511C254.661 216.806 258.177 218.098 261.995 223.713C262.712 224.23 263.412 224.322 264.078 223.982C265.366 223.325 266.274 221.194 266.236 218.915C266.211 217.442 265.717 213.808 261.681 211.92C258.861 210.601 254.209 211.074 251.922 212.911C251.736 213.061 251.463 213.031 251.313 212.845C251.164 212.658 251.193 212.385 251.38 212.236C252.639 211.224 254.495 210.56 256.607 210.366C258.623 210.181 260.607 210.462 262.048 211.136C266.526 213.23 267.074 217.264 267.102 218.902C267.147 221.535 266.065 223.942 264.472 224.755C264.088 224.95 263.686 225.047 263.28 225.047L263.28 225.046Z" fill="#FB8273" stroke="#FB8273" stroke-width="0.5"/>
<path fill-rule="evenodd" clip-rule="evenodd" d="M248.633 214.631C247.88 214.834 247.43 215.611 247.632 216.365C247.835 217.12 248.612 217.569 249.366 217.366C250.12 217.164 250.57 216.386 250.367 215.633C250.165 214.879 249.387 214.43 248.633 214.631V214.631ZM249 218.281C247.993 218.281 247.068 217.608 246.795 216.589C246.47 215.374 247.194 214.121 248.409 213.795C249.624 213.469 250.878 214.193 251.204 215.408C251.53 216.624 250.805 217.877 249.59 218.203C249.393 218.255 249.195 218.281 249 218.281L249 218.281Z" fill="#FB8273" stroke="#FB8273" stroke-width="0.5"/>
<path d="M65 140C84.3261 140 100 124.339 100 105C100 85.6615 84.3261 70 65 70C45.6739 70 30 85.6739 30 105C30 124.326 45.6739 140 65 140Z" fill="#E8F4FF"/>
<path d="M80.58 95.5137L81.9949 95.3046L81.3624 96.5874C79.7397 99.8779 76.9992 104.746 73.487 108.651C70.002 112.526 65.5859 115.64 60.6278 114.99L60.507 114.974C60.4626 115.098 60.4137 115.234 60.3616 115.374C60.1678 115.894 59.9094 116.531 59.5726 117.118C59.2425 117.693 58.7959 118.295 58.1921 118.666C57.5409 119.067 56.7592 119.165 55.9177 118.798L55.1323 118.456L55.5753 117.723C55.933 117.131 56.3554 116.624 56.7524 116.179C56.892 116.022 57.024 115.878 57.1494 115.741C57.2838 115.594 57.4107 115.456 57.5312 115.319C57.3781 114.944 57.25 114.564 57.1366 114.226C57.0746 114.042 57.017 113.871 56.962 113.721C56.7788 113.22 56.6125 112.899 56.4139 112.695C54.3781 112.402 52.8492 111.483 51.7783 110.099C50.6843 108.686 50.1114 106.846 49.8852 104.835C49.4337 100.822 50.336 95.8766 51.6343 91.5108L52.0573 90.0882L52.9517 91.2727C54.5838 93.4341 56.8833 96.9298 58.303 100.67C58.9009 102.246 59.3568 103.903 59.5254 105.541C60.551 103.785 62.1238 102.296 64.0143 101.044C68.399 98.14 74.6761 96.3863 80.58 95.5137ZM58.3474 111.718C58.3253 111.756 58.3028 111.792 58.2799 111.829C58.313 111.864 58.347 111.901 58.3817 111.938C58.3695 111.865 58.3581 111.791 58.3474 111.718Z" stroke="#50AD65" stroke-width="1.5"/>
<rect x="-0.00012207" y="181" width="70" height="70" rx="35" fill="#F8F9FF"/>
<path d="M34.9999 251C54.3361 251 69.9999 235.324 69.9999 216C69.9999 196.676 54.3238 181 34.9999 181C15.6759 181 -0.00012207 196.664 -0.00012207 216C-0.00012207 235.336 15.6759 251 34.9999 251Z" fill="#E8F4FF"/>
<g clip-path="url(#clip1_671_2370)">
<path d="M45.2493 221.976L29.2342 205.961C28.6418 205.369 27.6815 205.369 27.0892 205.961C26.4969 206.554 26.4969 207.514 27.0892 208.106L27.855 208.872C24.1204 212.607 21.0722 218.374 25.312 223.749L20.2605 228.8L22.4105 230.95L27.4622 225.898C32.8374 230.138 38.6046 227.09 42.3388 223.355L43.1046 224.121C43.697 224.714 44.6573 224.713 45.2496 224.121C45.8415 223.529 45.8415 222.568 45.2492 221.976L45.2493 221.976Z" stroke="#62BDFD" stroke-width="1.5"/>
<path d="M41.1679 204.49C41.7615 203.897 41.7615 202.934 41.1679 202.34C40.5743 201.747 39.6118 201.747 39.0181 202.34L34.0773 207.281L36.2273 209.431L41.1679 204.49Z" stroke="#62BDFD" stroke-width="1.5"/>
<path d="M48.6752 211.998C49.2689 211.404 49.2688 210.442 48.6752 209.848C48.0816 209.255 47.1191 209.255 46.5255 209.848L41.5846 214.789L43.7347 216.939L48.6752 211.998Z" stroke="#62BDFD" stroke-width="1.5"/>
</g>
<path d="M142 432C161.326 432 177 416.339 177 397C177 377.661 161.326 362 142 362C122.674 362 107 377.661 107 397C107 416.339 122.674 432 142 432Z" fill="#E8F4FF"/>
<path d="M151.507 406.581H148.854C148.609 406.581 148.412 406.776 148.412 407.017C148.412 407.257 148.609 407.452 148.854 407.452H150.368C147.992 409.424 144.984 410.501 141.779 410.501C134.464 410.501 128.513 404.64 128.513 397.436C128.513 397.195 128.315 397 128.07 397C127.826 397 127.628 397.195 127.628 397.436C127.628 405.12 133.976 411.372 141.779 411.372C145.253 411.372 148.511 410.183 151.065 408.01V409.63C151.065 409.87 151.263 410.065 151.507 410.065C151.752 410.065 151.95 409.87 151.95 409.63V407.017C151.95 406.776 151.752 406.581 151.507 406.581H151.507Z" fill="#50AD65" stroke="#50AD65" stroke-width="0.8"/>
<path d="M142.221 382.629C138.747 382.629 135.489 383.818 132.935 385.991V384.371C132.935 384.131 132.737 383.935 132.493 383.935C132.248 383.935 132.05 384.131 132.05 384.371V386.984C132.05 387.224 132.248 387.419 132.493 387.419H135.146C135.39 387.419 135.588 387.224 135.588 386.984C135.588 386.744 135.39 386.548 135.146 386.548H133.632C136.007 384.577 139.015 383.5 142.221 383.5C149.536 383.5 155.487 389.361 155.487 396.565C155.487 396.805 155.685 397.001 155.929 397.001C156.174 397.001 156.372 396.805 156.372 396.565C156.372 388.881 150.024 382.629 142.221 382.629H142.221Z" fill="#50AD65" stroke="#50AD65" stroke-width="0.8"/>
<path d="M219 362C238.326 362 254 346.338 254 327C254 307.661 238.339 292 219 292C199.661 292 184 307.661 184 327C184 346.338 199.674 362 219 362Z" fill="#E8F4FF"/>
<path d="M222.189 344.444C222.189 343.261 222.667 342.628 223.05 342.119C223.386 341.674 223.651 341.322 223.651 340.566C223.651 339.808 223.386 339.457 223.05 339.011C222.667 338.503 222.189 337.869 222.189 336.687C222.189 335.505 222.667 334.871 223.051 334.363C223.387 333.918 223.651 333.567 223.651 332.811C223.651 332.055 223.386 331.703 223.051 331.258C222.667 330.75 222.189 330.116 222.189 328.934C222.189 327.752 222.667 327.119 223.051 326.61C223.387 326.165 223.651 325.814 223.651 325.058C223.651 324.302 223.386 323.951 223.051 323.506C222.667 322.998 222.189 322.365 222.189 321.183C222.189 320.001 222.667 319.367 223.051 318.859C223.387 318.414 223.651 318.063 223.651 317.308C223.651 316.552 223.386 316.2 223.051 315.756C222.667 315.247 222.189 314.614 222.189 313.432C222.189 312.25 222.667 311.617 223.051 311.108C223.387 310.664 223.651 310.312 223.651 309.557C223.651 309.192 223.961 308.896 224.343 308.896C224.725 308.896 225.035 309.192 225.035 309.557C225.035 310.739 224.557 311.372 224.173 311.88C223.837 312.325 223.572 312.676 223.572 313.432C223.572 314.188 223.838 314.539 224.173 314.984C224.557 315.492 225.035 316.125 225.035 317.308C225.035 318.489 224.557 319.122 224.173 319.631C223.837 320.075 223.572 320.427 223.572 321.182C223.572 321.938 223.838 322.29 224.173 322.734C224.557 323.243 225.035 323.875 225.035 325.057C225.035 326.24 224.557 326.873 224.173 327.381C223.837 327.826 223.572 328.178 223.572 328.933C223.572 329.69 223.838 330.041 224.173 330.486C224.557 330.995 225.035 331.628 225.035 332.81C225.035 333.992 224.557 334.625 224.173 335.134C223.837 335.579 223.572 335.93 223.572 336.686C223.572 337.443 223.838 337.794 224.173 338.239C224.557 338.748 225.035 339.382 225.035 340.565C225.035 341.747 224.557 342.381 224.173 342.89C223.838 343.335 223.572 343.687 223.572 344.443C223.572 344.808 223.263 345.103 222.881 345.103C222.499 345.105 222.189 344.809 222.189 344.444Z" fill="#50DBBA" stroke="#50DBBA" stroke-width="0.3"/>
<path d="M217.577 344.444C217.577 343.261 218.055 342.628 218.439 342.119C218.774 341.674 219.039 341.322 219.039 340.566C219.039 339.808 218.774 339.457 218.439 339.011C218.055 338.503 217.577 337.869 217.577 336.687C217.577 335.505 218.055 334.871 218.439 334.363C218.775 333.918 219.039 333.567 219.039 332.811C219.039 332.055 218.775 331.703 218.439 331.258C218.055 330.75 217.577 330.116 217.577 328.934C217.577 327.752 218.055 327.119 218.439 326.61C218.774 326.165 219.039 325.814 219.039 325.058C219.039 324.302 218.775 323.951 218.439 323.506C218.055 322.998 217.577 322.365 217.577 321.183C217.577 320.001 218.055 319.367 218.439 318.859C218.775 318.414 219.039 318.063 219.039 317.308C219.039 316.552 218.775 316.2 218.439 315.756C218.055 315.247 217.577 314.614 217.577 313.432C217.577 312.25 218.055 311.617 218.439 311.108C218.775 310.664 219.039 310.312 219.039 309.557C219.039 309.192 219.349 308.896 219.731 308.896C220.113 308.896 220.423 309.192 220.423 309.557C220.423 310.739 219.945 311.372 219.561 311.88C219.225 312.325 218.961 312.676 218.961 313.432C218.961 314.188 219.226 314.539 219.561 314.984C219.945 315.492 220.423 316.125 220.423 317.308C220.423 318.489 219.945 319.122 219.561 319.631C219.225 320.075 218.961 320.427 218.961 321.182C218.961 321.938 219.226 322.29 219.561 322.734C219.945 323.243 220.423 323.875 220.423 325.057C220.423 326.24 219.945 326.873 219.561 327.381C219.225 327.826 218.961 328.178 218.961 328.933C218.961 329.69 219.226 330.041 219.562 330.486C219.945 330.995 220.423 331.628 220.423 332.81C220.423 333.992 219.945 334.625 219.561 335.134C219.225 335.579 218.961 335.93 218.961 336.686C218.961 337.443 219.226 337.794 219.561 338.239C219.945 338.748 220.423 339.382 220.423 340.565C220.423 341.747 219.945 342.381 219.562 342.89C219.226 343.335 218.961 343.687 218.961 344.443C218.961 344.808 218.651 345.103 218.269 345.103C217.887 345.105 217.577 344.809 217.577 344.444Z" fill="#50DBBA" stroke="#50DBBA" stroke-width="0.3"/>
<path d="M212.966 344.444C212.966 343.261 213.443 342.628 213.827 342.119C214.163 341.674 214.428 341.322 214.428 340.566C214.428 339.808 214.163 339.457 213.827 339.011C213.443 338.503 212.966 337.869 212.966 336.687C212.966 335.505 213.443 334.871 213.827 334.363C214.163 333.918 214.428 333.567 214.428 332.811C214.428 332.055 214.163 331.703 213.827 331.258C213.443 330.75 212.966 330.116 212.966 328.934C212.966 327.752 213.443 327.119 213.827 326.61C214.163 326.165 214.428 325.814 214.428 325.058C214.428 324.302 214.163 323.951 213.827 323.506C213.443 322.998 212.966 322.365 212.966 321.183C212.966 320.001 213.443 319.367 213.827 318.859C214.163 318.414 214.428 318.063 214.428 317.308C214.428 316.552 214.163 316.2 213.827 315.756C213.443 315.247 212.966 314.614 212.966 313.432C212.966 312.25 213.443 311.617 213.827 311.108C214.163 310.664 214.428 310.312 214.428 309.557C214.428 309.192 214.737 308.896 215.119 308.896C215.501 308.896 215.811 309.192 215.811 309.557C215.811 310.739 215.334 311.372 214.949 311.88C214.614 312.325 214.349 312.676 214.349 313.432C214.349 314.188 214.614 314.539 214.949 314.984C215.334 315.492 215.811 316.125 215.811 317.308C215.811 318.489 215.334 319.122 214.949 319.631C214.614 320.075 214.349 320.427 214.349 321.182C214.349 321.938 214.614 322.29 214.949 322.734C215.334 323.243 215.811 323.875 215.811 325.057C215.811 326.24 215.334 326.873 214.949 327.381C214.614 327.826 214.349 328.178 214.349 328.933C214.349 329.69 214.614 330.041 214.95 330.486C215.334 330.995 215.811 331.628 215.811 332.81C215.811 333.992 215.334 334.625 214.949 335.134C214.614 335.579 214.349 335.93 214.349 336.686C214.349 337.443 214.614 337.794 214.95 338.239C215.334 338.748 215.811 339.382 215.811 340.565C215.811 341.747 215.334 342.381 214.95 342.89C214.614 343.335 214.349 343.687 214.349 344.443C214.349 344.808 214.039 345.103 213.657 345.103C213.275 345.105 212.966 344.809 212.966 344.444Z" fill="#50DBBA" stroke="#50DBBA" stroke-width="0.3"/>
<path d="M141.081 191.004C139.02 191.07 137.019 191.395 135.042 191.99C131.516 193.05 128.374 194.807 125.671 197.326C120.566 202.081 117.752 207.965 117.512 215.068C117.479 216.039 117.438 216.067 116.5 216.067C115.714 216.067 114.929 216.067 114 216.067C116.329 219.632 118.547 223.016 120.848 226.534C123.158 222.997 125.38 219.599 127.695 216.053H124.248C124.47 208.946 127.372 203.392 133.457 200.198C142.319 195.555 150.035 197.814 156.522 205.367C157.663 203.619 158.795 201.853 159.969 200.115C160.311 199.608 160.265 199.297 159.849 198.846C156.97 195.741 153.547 193.496 149.582 192.18C148.067 191.678 146.477 191.321 144.879 191.172C144.879 191.172 142.809 190.953 141.09 191.009M139.121 240.832C137.546 240.53 135.933 240.33 134.418 239.823C130.453 238.503 127.034 236.253 124.147 233.158C123.726 232.707 123.689 232.391 124.031 231.889C125.2 230.151 126.332 228.384 127.459 226.655C134.256 234.394 142.162 236.537 151.241 231.41C157.414 227.924 160.071 220.72 159.595 215.941H156.305C158.62 212.395 160.842 208.997 163.152 205.465C165.453 208.983 167.667 212.367 170 215.932C169.044 215.932 168.23 215.983 167.426 215.918C166.692 215.858 166.488 216.188 166.479 216.857C166.428 221.301 165.162 225.386 162.88 229.137C160.108 233.692 156.291 237.03 151.426 239.112C148.7 240.279 145.872 240.948 142.91 240.994C140.623 241.036 139.121 240.827 139.121 240.827" fill="#151618"/>
</g>
<defs>
<clipPath id="clip0_671_2370">
<rect width="284" height="432" fill="white"/>
</clipPath>
<clipPath id="clip1_671_2370">
<rect width="30.625" height="30.625" fill="white" transform="translate(19.6797 200.824)"/>
</clipPath>
</defs>
</svg>
