<svg width="689" height="803" viewBox="0 0 689 803" fill="none" xmlns="http://www.w3.org/2000/svg">
<g clip-path="url(#clip0_671_2101)">
<path d="M412.243 117.506H408.188V559.508H412.243V117.506Z" fill="#151618"/>
<path d="M221.694 70.1992H218.991V559.51H221.694V70.1992Z" fill="#151618"/>
<path d="M633.873 558.156H387.917V562.211H633.873V558.156Z" fill="#151618"/>
<path d="M248.722 558.156H24.3876V562.211H248.722V558.156Z" fill="#151618"/>
<path d="M486.57 513.551H387.917V517.606H486.57V513.551Z" fill="#151618"/>
<path d="M486.57 468.945H387.917V474.352H486.57V468.945Z" fill="#151618"/>
<path d="M486.57 424.34H387.917V429.747H486.57V424.34Z" fill="#151618"/>
<path d="M486.57 381.086H387.917V385.141H486.57V381.086Z" fill="#151618"/>
<path d="M486.57 336.48H387.917V340.536H486.57V336.48Z" fill="#151618"/>
<path d="M486.57 291.875H387.917V295.93H486.57V291.875Z" fill="#151618"/>
<path d="M486.57 247.268H387.917V251.323H486.57V247.268Z" fill="#151618"/>
<path d="M486.57 202.664H387.917V208.071H486.57V202.664Z" fill="#151618"/>
<path d="M486.57 158.059H387.917V163.465H486.57V158.059Z" fill="#151618"/>
<path d="M486.57 114.803H387.917V118.858H486.57V114.803Z" fill="#151618"/>
<path d="M420.351 66.1426H387.917V74.2527H420.351V66.1426Z" fill="#151618"/>
<path d="M370.348 66.1426H290.615V74.2527H370.348V66.1426Z" fill="#151618"/>
<path d="M248.722 66.1426H183.854V74.2527H248.722V66.1426Z" fill="#151618"/>
<path d="M390.62 43.1641H371.7V47.2191H390.62V43.1641Z" fill="#151618"/>
<path d="M289.264 49.9219H248.722V53.9769H289.264V49.9219Z" fill="#151618"/>
<path d="M393.322 67.4961H387.917V118.86H393.322V67.4961Z" fill="#151618"/>
<path d="M421.702 43.1641H416.296V118.859H421.702V43.1641Z" fill="#151618"/>
<path d="M185.206 43.1641H181.151V118.859H185.206V43.1641Z" fill="#151618"/>
<path d="M248.722 513.551H116.283V517.606H248.722V513.551Z" fill="#151618"/>
<path d="M248.722 468.945H116.283V474.352H248.722V468.945Z" fill="#151618"/>
<path d="M248.722 424.34H116.283V429.747H248.722V424.34Z" fill="#151618"/>
<path d="M248.722 381.086H116.283V385.141H248.722V381.086Z" fill="#151618"/>
<path d="M248.722 336.48H116.283V340.536H248.722V336.48Z" fill="#151618"/>
<path d="M248.722 291.875H116.283V295.93H248.722V291.875Z" fill="#151618"/>
<path d="M248.722 247.268H116.283V251.323H248.722V247.268Z" fill="#151618"/>
<path d="M248.722 202.664H116.283V208.071H248.722V202.664Z" fill="#151618"/>
<path d="M248.722 158.059H116.283V163.465H248.722V158.059Z" fill="#151618"/>
<path d="M248.722 114.803H116.283V118.858H248.722V114.803Z" fill="#151618"/>
<path d="M633.873 640.609H387.917V646.016H633.873V640.609Z" fill="#151618"/>
<path d="M248.722 640.609H116.283V646.016H248.722V640.609Z" fill="#151618"/>
<path d="M633.873 694.68H287.912V705.493H633.873V694.68Z" fill="#151618"/>
<path d="M373.052 43.1641H368.997V696.029H373.052V43.1641Z" fill="#151618"/>
<path d="M291.968 49.9219H287.912V696.029H291.968V49.9219Z" fill="#151618"/>
<path d="M250.074 49.9219H247.37V696.029H250.074V49.9219Z" fill="#151618"/>
<path d="M250.073 694.68H114.932V705.493H250.073V694.68Z" fill="#151618"/>
<path d="M293.318 716.305H246.019V725.766H293.318V716.305Z" fill="#151618"/>
<path d="M293.318 697.379H287.912V719.006H293.318V697.379Z" fill="#151618"/>
<path d="M250.074 696.027H246.019V720.358H250.074V696.027Z" fill="#151618"/>
<path d="M120.338 641.961H114.932V697.38H120.338V641.961Z" fill="#151618"/>
<path d="M633.874 533.826H629.819V697.38H633.874V533.826Z" fill="#151618"/>
<path d="M390.62 560.859H387.917V608.168H390.62V560.859Z" fill="#151618"/>
<path d="M631.17 597.355H558.194V600.059H631.17V597.355Z" fill="#151618"/>
<path d="M487.921 90.4727H486.57V560.86H487.921V90.4727Z" fill="#151618"/>
<path d="M116.284 90.4727H114.932V643.313H116.284V90.4727Z" fill="#151618"/>
<path d="M117.635 560.859H24.3876V562.211H117.635V560.859Z" fill="#151618"/>
<path d="M634.059 694.938L634.029 695.949L688.28 697.569L688.311 696.558L634.059 694.938Z" fill="#151618"/>
<path d="M24.3876 562.213H25.7393V668.359L24.3876 668.996V562.213Z" fill="#151618"/>
<path d="M117.635 640.609V641.961H85.2011L88.1735 640.609H117.635Z" fill="#151618"/>
<path d="M81.8895 641.961H85.2011L25.739 670.346V668.769L81.8895 641.961Z" fill="#151618"/>
<path d="M25.7393 667.645V669.54L24.3876 670.348V668.436L25.7393 667.645Z" fill="#151618"/>
<path d="M84.3543 640.609H87.9039L84.6822 641.961H81.1468L84.3543 640.609Z" fill="#151618"/>
<path d="M623.062 533.826H621.711V551.398H623.062V533.826Z" fill="#50AD65"/>
<path d="M610.9 533.826H609.548V551.398H610.9V533.826Z" fill="#50AD65"/>
<path d="M617.657 533.826H616.305V551.398H617.657V533.826Z" fill="#50AD65"/>
<path d="M605.494 533.826H604.142V551.398H605.494V533.826Z" fill="#50AD65"/>
<path d="M593.331 533.826H591.98V551.398H593.331V533.826Z" fill="#50AD65"/>
<path d="M598.737 533.826H597.385V551.398H598.737V533.826Z" fill="#50AD65"/>
<path d="M586.574 533.826H585.223V551.398H586.574V533.826Z" fill="#50AD65"/>
<path d="M574.412 533.826H573.06V551.398H574.412V533.826Z" fill="#50AD65"/>
<path d="M581.169 533.826H579.817V551.398H581.169V533.826Z" fill="#50AD65"/>
<path d="M569.006 533.826H567.654V551.398H569.006V533.826Z" fill="#50AD65"/>
<path d="M556.843 533.826H555.491V551.398H556.843V533.826Z" fill="#50AD65"/>
<path d="M562.249 533.826H560.897V551.398H562.249V533.826Z" fill="#50AD65"/>
<path d="M544.68 533.826H543.329V551.398H544.68V533.826Z" fill="#50AD65"/>
<path d="M550.086 533.826H548.734V551.398H550.086V533.826Z" fill="#50AD65"/>
<path d="M537.923 533.826H536.572V551.398H537.923V533.826Z" fill="#50AD65"/>
<path d="M525.761 533.826H524.409V551.398H525.761V533.826Z" fill="#50AD65"/>
<path d="M532.518 533.826H531.166V551.398H532.518V533.826Z" fill="#50AD65"/>
<path d="M520.355 533.826H519.003V551.398H520.355V533.826Z" fill="#50AD65"/>
<path d="M496.03 533.826H494.678V551.398H496.03V533.826Z" fill="#50AD65"/>
<path d="M502.787 533.826H501.435V551.398H502.787V533.826Z" fill="#50AD65"/>
<path d="M508.192 533.826H506.841V551.398H508.192V533.826Z" fill="#50AD65"/>
<path d="M514.949 533.826H513.598V551.398H514.949V533.826Z" fill="#50AD65"/>
<path d="M177.097 90.4727H175.745V108.045H177.097V90.4727Z" fill="#50AD65"/>
<path d="M164.934 90.4727H163.583V108.045H164.934V90.4727Z" fill="#50AD65"/>
<path d="M170.34 90.4727H168.988V108.045H170.34V90.4727Z" fill="#50AD65"/>
<path d="M158.177 90.4727H156.826V108.045H158.177V90.4727Z" fill="#50AD65"/>
<path d="M146.015 90.4727H144.663V108.045H146.015V90.4727Z" fill="#50AD65"/>
<path d="M152.772 90.4727H151.42V108.045H152.772V90.4727Z" fill="#50AD65"/>
<path d="M140.609 90.4727H139.257V108.045H140.609V90.4727Z" fill="#50AD65"/>
<path d="M121.689 90.4727H120.338V108.045H121.689V90.4727Z" fill="#50AD65"/>
<path d="M128.446 90.4727H127.095V108.045H128.446V90.4727Z" fill="#50AD65"/>
<path d="M133.852 90.4727H132.5V108.045H133.852V90.4727Z" fill="#50AD65"/>
<path d="M481.164 90.4727H479.813V108.045H481.164V90.4727Z" fill="#50AD65"/>
<path d="M469.002 90.4727H467.65V108.045H469.002V90.4727Z" fill="#50AD65"/>
<path d="M475.759 90.4727H474.407V108.045H475.759V90.4727Z" fill="#50AD65"/>
<path d="M463.596 90.4727H462.244V108.045H463.596V90.4727Z" fill="#50AD65"/>
<path d="M451.433 90.4727H450.082V108.045H451.433V90.4727Z" fill="#50AD65"/>
<path d="M458.191 90.4727H455.487V108.045H458.191V90.4727Z" fill="#50AD65"/>
<path d="M439.271 90.4727H437.919V108.045H439.271V90.4727Z" fill="#50AD65"/>
<path d="M446.028 90.4727H444.676V108.045H446.028V90.4727Z" fill="#50AD65"/>
<path d="M433.865 90.4727H432.513V108.045H433.865V90.4727Z" fill="#50AD65"/>
<path d="M427.108 90.4727H425.756V108.045H427.108V90.4727Z" fill="#50AD65"/>
<path d="M370.348 640.609H340.617V646.016H370.348V640.609Z" fill="#151618"/>
<path d="M316.292 513.551H290.615V517.606H316.292V513.551Z" fill="#151618"/>
<path d="M321.698 468.945H290.615V474.352H321.698V468.945Z" fill="#151618"/>
<path d="M371.7 489.221H352.78V493.276H371.7V489.221Z" fill="#151618"/>
<path d="M352.749 493.095H348.577V495.592H344.392V498.115H340.221V500.638H336.036V503.135H331.877V505.658H327.679V508.155H323.52V510.678H319.322V513.201H315.123V514.673H313.589V515.98H315.285V517.606H316.469L356.383 493.53V491.968H358.024V490.572H358.186H352.749V492.941" fill="#151618"/>
<path d="M314.941 469.135L354.015 494.627L354.568 493.298L355.174 492.918H356.834V491.521H355.333V489.974H351.222V487.301H347.125V484.615H343.041V481.983H338.944V479.297H334.86V476.665H330.763V473.979H326.692V471.306H322.582V468.945H316.166L314.941 469.135Z" fill="#151618"/>
<path d="M316.292 468.945H290.615V474.352H316.292V468.945Z" fill="#151618"/>
<path d="M321.698 424.34H290.615V429.747H321.698V424.34Z" fill="#151618"/>
<path d="M371.7 445.967H352.78V448.67H371.7V445.967Z" fill="#151618"/>
<path d="M352.749 448.616H348.577V451.238H344.392V453.887H340.221V456.549H336.036V459.158H331.877V461.82H327.679V464.429H323.52V467.091H319.322V469.74H315.123V471.273H313.589V472.658H315.285V474.352H316.469L356.383 449.073V447.446H358.024V445.967H358.186H352.749V448.454" fill="#151618"/>
<path d="M314.941 424.53L354.015 450.022L354.568 448.68L355.174 448.3H356.834V446.917H355.333V445.357H351.222V442.686H347.125V440.015H343.041V437.371H338.944V434.699H334.86V432.055H330.763V429.384H326.692V426.713H322.582V424.34H316.166L314.941 424.53Z" fill="#151618"/>
<path d="M316.292 424.34H290.615V429.747H316.292V424.34Z" fill="#151618"/>
<path d="M321.698 381.086H290.615V385.141H321.698V381.086Z" fill="#151618"/>
<path d="M371.7 401.361H352.78V404.065H371.7V401.361Z" fill="#151618"/>
<path d="M352.749 404.01H348.577V406.632H344.392V409.281H340.221V411.93H336.036V414.552H331.877V417.215H327.679V419.823H323.52V422.486H319.322V425.135H315.123V426.668H313.589V428.039H315.285V429.747H316.469L356.383 404.467V402.84H358.024V401.361H358.186H352.749V403.849" fill="#151618"/>
<path d="M314.941 381.266L354.015 405.416L354.568 404.145L355.174 403.785H356.834V402.475H355.333V400.997H351.222V398.467H347.125V395.936H343.041V393.431H338.944V390.9H334.86V388.395H330.763V385.865H326.692V383.334H322.582V381.086H316.166L314.941 381.266Z" fill="#151618"/>
<path d="M310.886 663.59H290.615V670.348H310.886V663.59Z" fill="#151618"/>
<path d="M312.238 614.93H289.264V620.336H312.238V614.93Z" fill="#151618"/>
<path d="M342.099 643.391H338.073V646.132H333.994V648.914H329.969V651.682H325.903V654.437H321.864V657.205H317.799V659.946H313.76V662.727H309.695V665.509H305.629V667.121H304.129V668.559H305.787V670.347H306.932L345.625 643.875V642.155H347.217V640.609H347.374H342.099V643.216" fill="#151618"/>
<path d="M304.129 617.827L344.457 644.667L345.043 643.266L345.656 642.863H347.374V641.398H345.816V639.763H341.579V636.948H337.343V634.133H333.133V631.357H328.896V628.529H324.699V625.753H320.463V622.938H316.253V620.123H312.016V617.633H305.395L304.129 617.827Z" fill="#151618"/>
<path d="M301.427 665.174L351.84 697.382L352.568 695.691L353.337 695.213H355.483L353.54 694.761V693.457V691.508H348.25V688.126H342.947V684.744H337.685V681.413H332.395V678.031H327.132V674.688H321.829V671.306H316.58V667.936H311.277V664.941H302.992L301.427 665.174Z" fill="#151618"/>
<path d="M321.698 558.156H290.615V562.211H321.698V558.156Z" fill="#151618"/>
<path d="M371.7 582.488H347.374V586.543H371.7V582.488Z" fill="#151618"/>
<path d="M351.913 585.645H347.122V588.762H342.291V591.919H337.5V595.075H332.682V598.192H327.891V601.349H323.06V604.466H318.269V607.623H313.438V610.793H308.607V612.618H306.832V614.802H308.794V616.28H310.155L356.104 586.191V584.233H357.986V582.488H358.186H351.913V585.445" fill="#151618"/>
<path d="M314.941 558.363L354.015 586.542L354.568 585.067L355.174 584.653H356.834V583.113H355.333V581.405H351.222V578.443H347.125V575.48H343.041V572.569H338.944V569.606H334.86V566.682H330.763V563.732H326.692V560.77H322.582V558.156H316.166L314.941 558.363Z" fill="#151618"/>
<path d="M316.292 558.156H290.615V562.211H316.292V558.156Z" fill="#151618"/>
<path d="M321.698 513.551H290.615V517.606H321.698V513.551Z" fill="#151618"/>
<path d="M371.7 533.826H352.78V537.881H371.7V533.826Z" fill="#151618"/>
<path d="M352.749 536.475H348.577V539.097H344.392V541.746H340.221V544.395H336.036V547.017H331.877V549.68H327.679V552.288H323.52V554.951H319.322V557.599H315.123V559.132H313.589V560.504H315.285V562.212H316.469L356.383 536.932V535.305H358.024V533.826H358.186H352.749V536.314" fill="#151618"/>
<path d="M314.941 513.741L354.015 539.233L354.568 537.89L355.174 537.511H356.834V536.128H355.333V534.568H351.222V531.897H347.125V529.226H343.041V526.582H338.944V523.91H334.86V521.266H330.763V518.595H326.692V515.924H322.582V513.551H316.166L314.941 513.741Z" fill="#151618"/>
<path d="M316.292 381.086H290.615V385.141H316.292V381.086Z" fill="#151618"/>
<path d="M321.698 336.48H290.615V340.536H321.698V336.48Z" fill="#151618"/>
<path d="M371.7 356.754H352.78V359.457H371.7V356.754Z" fill="#151618"/>
<path d="M352.749 359.403H348.577V362.025H344.392V364.674H340.221V367.323H336.036V369.945H331.877V372.594H327.679V375.216H323.52V377.865H319.322V380.514H315.123V382.06H313.589V383.432H315.285V385.139H316.469L356.383 359.86V358.22H358.024V356.754H358.186H352.749V359.242" fill="#151618"/>
<path d="M314.941 336.66L354.015 360.811L354.568 359.551L355.174 359.191H356.834V357.868H355.333V356.402H351.222V353.87H347.125V351.325H343.041V348.832H338.944V346.287H334.86V343.794H330.763V341.249H326.692V338.717H322.582V336.48H316.166L314.941 336.66Z" fill="#151618"/>
<path d="M316.292 336.48H290.615V340.536H316.292V336.48Z" fill="#151618"/>
<path d="M321.698 291.875H290.615V295.93H321.698V291.875Z" fill="#151618"/>
<path d="M371.7 312.15H352.78V316.205H371.7V312.15Z" fill="#151618"/>
<path d="M352.749 314.799H348.577V317.421H344.392V320.07H340.221V322.733H336.036V325.341H331.877V328.004H327.679V330.612H323.52V333.275H319.322V335.924H315.123V337.457H313.589V338.842H315.285V340.536H316.469L356.383 315.257V313.629H358.024V312.15H358.186H352.749V314.638" fill="#151618"/>
<path d="M314.941 292.065L354.015 317.557L354.568 316.215L355.174 315.835H356.834V314.452H355.333V312.893H351.222V310.221H347.125V307.55H343.041V304.906H338.944V302.235H334.86V299.59H330.763V296.919H326.692V294.248H322.582V291.875H316.166L314.941 292.065Z" fill="#151618"/>
<path d="M316.292 291.875H290.615V295.93H316.292V291.875Z" fill="#151618"/>
<path d="M321.698 247.268H290.615V251.323H321.698V247.268Z" fill="#151618"/>
<path d="M371.7 267.545H352.78V271.6H371.7V267.545Z" fill="#151618"/>
<path d="M352.749 270.194H348.577V272.816H344.392V275.465H340.221V278.114H336.036V280.736H331.877V283.398H327.679V286.007H323.52V288.669H319.322V291.318H315.123V292.851H313.589V294.223H315.285V295.93H316.469L356.383 270.651V269.024H358.024V267.545H358.186H352.749V270.033" fill="#151618"/>
<path d="M314.941 247.457L354.015 272.95L354.568 271.607L355.174 271.228H356.834V269.844H355.333V268.285H351.222V265.614H347.125V262.943H343.041V260.298H338.944V257.627H334.86V254.983H330.763V252.312H326.692V249.641H322.582V247.268H316.166L314.941 247.457Z" fill="#151618"/>
<path d="M316.292 247.268H290.615V251.323H316.292V247.268Z" fill="#151618"/>
<path d="M321.698 202.664H290.615V208.071H321.698V202.664Z" fill="#151618"/>
<path d="M371.7 222.939H352.78V226.995H371.7V222.939Z" fill="#151618"/>
<path d="M352.749 226.812H348.577V229.309H344.392V231.832H340.221V234.355H336.036V236.852H331.877V239.375H327.679V241.872H323.52V244.395H319.322V246.917H315.123V248.39H313.589V249.696H315.285V251.323H316.469L356.383 227.247V225.685H358.024V224.289H358.186H352.749V226.658" fill="#151618"/>
<path d="M314.941 202.854L354.015 228.346L354.568 227.017L355.174 226.637H356.834V225.239H355.333V223.693H351.222V221.02H347.125V218.334H343.041V215.702H338.944V213.016H334.86V210.384H330.763V207.697H326.692V205.025H322.582V202.664H316.166L314.941 202.854Z" fill="#151618"/>
<path d="M316.292 202.664H290.615V208.071H316.292V202.664Z" fill="#151618"/>
<path d="M321.698 158.059H290.615V163.465H321.698V158.059Z" fill="#151618"/>
<path d="M371.7 179.686H352.78V182.389H371.7V179.686Z" fill="#151618"/>
<path d="M352.749 182.334H348.577V184.957H344.392V187.605H340.221V190.268H336.036V192.877H331.877V195.539H327.679V198.148H323.52V200.81H319.322V203.459H315.123V204.992H313.589V206.377H315.285V208.071H316.469L356.383 182.792V181.165H358.024V179.686H358.186H352.749V182.173" fill="#151618"/>
<path d="M314.941 158.248L354.015 183.741L354.568 182.398L355.174 182.019H356.834V180.635H355.333V179.076H351.222V176.405H347.125V173.734H343.041V171.089H338.944V168.418H334.86V165.774H330.763V163.103H326.692V160.432H322.582V158.059H316.166L314.941 158.248Z" fill="#151618"/>
<path d="M316.292 158.059H290.615V163.465H316.292V158.059Z" fill="#151618"/>
<path d="M321.698 114.803H290.615V118.858H321.698V114.803Z" fill="#151618"/>
<path d="M371.7 135.08H352.78V137.783H371.7V135.08Z" fill="#151618"/>
<path d="M352.749 137.729H348.577V140.351H344.392V143H340.221V145.662H336.036V148.271H331.877V150.933H327.679V153.542H323.52V156.204H319.322V158.853H315.123V160.386H313.589V161.771H315.285V163.466H316.469L356.383 138.186V136.559H358.024V135.08H358.186H352.749V137.568" fill="#151618"/>
<path d="M314.941 114.983L354.015 139.133L354.568 137.861L355.174 137.502H356.834V136.191H355.333V134.714H351.222V132.183H347.125V129.653H343.041V127.148H338.944V124.617H334.86V122.112H330.763V119.581H326.692V117.051H322.582V114.803H316.166L314.941 114.983Z" fill="#151618"/>
<path d="M421.702 43.1641H181.151V44.5158H421.702V43.1641Z" fill="#151618"/>
<path d="M77.5417 643.339H71.6884V646.029H65.7692V648.746H59.916V651.476H54.0099V654.166H48.1435V656.896H42.2375V659.586H36.371V662.303H30.465V665.033H24.559V666.609H24.3876V668.027H24.7831V668.995L26.2596 668.544L81.4702 642.836L82.6699 642.12L84.3705 641.643L84.9769 640.609H85.201H77.5417V643.167" fill="#151618"/>
<path d="M262.236 78.3086V671.699" stroke="#62BDFD" stroke-width="5" stroke-linecap="square"/>
<path d="M262.918 70.1992L251.424 82.3644H274.398L262.918 70.1992Z" fill="#62BDFD"/>
<path d="M137.906 650.072V612.225" stroke="#FB8273" stroke-width="5" stroke-linecap="square"/>
<path d="M138.575 604.115L150.069 616.28H127.095L138.575 604.115Z" fill="#FB8273"/>
<path d="M167.637 650.072V612.225" stroke="#FB8273" stroke-width="5" stroke-linecap="square"/>
<path d="M166.961 604.115L178.448 616.28H155.474L166.961 604.115Z" fill="#FB8273"/>
<path d="M100.067 93.1758V544.639" stroke="#50DBBA" stroke-width="5" stroke-linecap="square" stroke-dasharray="10.81 10.81"/>
<path d="M646.036 536.529V682.512" stroke="#50DBBA" stroke-width="5.40675" stroke-linecap="square" stroke-dasharray="10.81 10.81"/>
<path d="M275.75 91.8262V673.052" stroke="#62BDFD" stroke-width="5" stroke-linecap="square" stroke-dasharray="10.81 10.81"/>
<path d="M240.613 652.773H217.639V689.269H240.613V652.773Z" fill="#62BDFD"/>
<path d="M209.531 652.773H186.557V689.269H209.531V652.773Z" fill="#50AD65"/>
<path d="M151.42 652.773H125.743V689.269H151.42V652.773Z" fill="#FB8273"/>
<path d="M179.8 652.773H154.123V689.269H179.8V652.773Z" fill="#FB8273"/>
<path d="M259.533 658.184H236.559" stroke="#62BDFD" stroke-width="5" stroke-linecap="square"/>
<path d="M593.331 673.051H251.424" stroke="#62BDFD" stroke-width="5.40675" stroke-linecap="square" stroke-dasharray="10.81 10.81"/>
<path d="M243.316 673.728L255.479 685.217V662.238L243.316 673.728Z" fill="#62BDFD"/>
<path d="M502.787 93.1758V521.661" stroke="#6BDFC4" stroke-width="5" stroke-linecap="square" stroke-dasharray="10.81 10.81"/>
<path d="M559.517 245.629C578.843 245.629 594.517 229.967 594.517 210.629C594.517 191.29 578.856 175.629 559.517 175.629C540.179 175.629 524.517 191.303 524.517 210.629C524.517 229.955 540.191 245.629 559.517 245.629Z" fill="#E8F4FF"/>
<path d="M569.431 227.527H549.603V200.471H569.377V227.527H569.431ZM550.681 226.486H568.407V201.511H550.681V226.486Z" fill="#50DBBA" stroke="#50DBBA" stroke-width="0.675844"/>
<path d="M547.448 226.486H571.586V227.527H547.448V226.486Z" fill="#50DBBA" stroke="#50DBBA" stroke-width="0.675844"/>
<path d="M566.79 201.51H552.243V197.512H566.844V201.51H566.79ZM553.267 200.469H565.767V198.607H553.267V200.469Z" fill="#50DBBA" stroke="#50DBBA" stroke-width="0.675844"/>
<path d="M561.888 193.733H562.912V198.06H561.888V193.733Z" fill="#50DBBA" stroke="#50DBBA" stroke-width="0.675844"/>
<path d="M556.715 194.773H557.74V198.06H556.715V194.773Z" fill="#50DBBA" stroke="#50DBBA" stroke-width="0.675844"/>
<path d="M563.181 227.525H555.853V219.857H563.127V227.525H563.181ZM556.931 226.484H562.157V220.898H556.931V226.484Z" fill="#50DBBA" stroke="#50DBBA" stroke-width="0.675844"/>
<path d="M556.23 207.152H552.243V203.099H556.23V207.152ZM553.267 206.111H555.206V204.139H553.267V206.111Z" fill="#50DBBA" stroke="#50DBBA" stroke-width="0.675844"/>
<path d="M561.511 207.152H557.524V203.099H561.511V207.152ZM558.548 206.111H560.487V204.139H558.548V206.111Z" fill="#50DBBA" stroke="#50DBBA" stroke-width="0.675844"/>
<path d="M566.79 207.152H562.803V203.099H566.79V207.152ZM563.881 206.111H565.821V204.139H563.881V206.111Z" fill="#50DBBA" stroke="#50DBBA" stroke-width="0.675844"/>
<path d="M556.23 212.573H552.243V208.521H556.23V212.573ZM553.267 211.533H555.206V209.561H553.267V211.533Z" fill="#50DBBA" stroke="#50DBBA" stroke-width="0.675844"/>
<path d="M561.511 212.573H557.524V208.521H561.511V212.573ZM558.548 211.533H560.487V209.561H558.548V211.533Z" fill="#50DBBA" stroke="#50DBBA" stroke-width="0.675844"/>
<path d="M566.79 212.573H562.803V208.521H566.79V212.573ZM563.881 211.533H565.821V209.561H563.881V211.533Z" fill="#50DBBA" stroke="#50DBBA" stroke-width="0.675844"/>
<path d="M556.23 217.997H552.243V213.944H556.23V217.997ZM553.267 216.957H555.206V214.985H553.267V216.957Z" fill="#50DBBA" stroke="#50DBBA" stroke-width="0.675844"/>
<path d="M561.511 217.997H557.524V213.944H561.511V217.997ZM558.548 216.957H560.487V214.985H558.548V216.957Z" fill="#50DBBA" stroke="#50DBBA" stroke-width="0.675844"/>
<path d="M566.79 217.997H562.803V213.944H566.79V217.997ZM563.881 216.957H565.821V214.985H563.881V216.957Z" fill="#50DBBA" stroke="#50DBBA" stroke-width="0.675844"/>
<rect x="236.608" y="732.523" width="70" height="70" rx="35" fill="#F8F9FF"/>
<path d="M271.608 802.523C290.941 802.523 306.608 786.857 306.608 767.523C306.608 748.19 290.941 732.523 271.608 732.523C252.274 732.523 236.608 748.19 236.608 767.523C236.608 786.857 252.274 802.523 271.608 802.523Z" fill="#E8F4FF"/>
<path d="M271.607 750.434C271.66 750.434 271.701 750.452 271.728 750.476C271.992 750.709 275.363 753.729 278.661 757.895C280.31 759.978 281.924 762.327 283.122 764.739C284.324 767.159 285.077 769.581 285.077 771.829C285.077 778.831 279.08 784.613 271.608 784.613C264.134 784.613 258.139 778.831 258.139 771.829C258.139 769.581 258.891 767.159 260.093 764.739C261.291 762.327 262.905 759.978 264.555 757.895C267.852 753.73 271.222 750.711 271.486 750.475C271.513 750.452 271.555 750.434 271.607 750.434ZM261.457 770.117C261.457 776.26 266.576 781.21 272.815 781.21C273.971 781.21 274.992 780.304 274.992 779.087C274.992 777.869 273.97 776.964 272.815 776.964C268.936 776.964 265.812 773.873 265.812 770.117C265.812 768.9 264.79 767.995 263.634 767.995C262.479 767.995 261.457 768.9 261.457 770.117Z" stroke="#62BDFD" stroke-width="2.02753"/>
<path d="M35.0623 678.17C54.3884 678.17 70.0623 662.508 70.0623 643.17C70.0623 623.831 54.4008 608.17 35.0623 608.17C15.7238 608.17 0.0622864 623.844 0.0622864 643.17C0.0622864 662.496 15.7362 678.17 35.0623 678.17Z" fill="#E8F4FF"/>
<path d="M51.0919 647.086L45.7759 648.427L42.7364 646.697L44.8629 646.134H44.8626C45.2389 646.037 45.4647 645.659 45.367 645.289C45.269 644.918 44.8848 644.696 44.5081 644.793L41.0597 645.852L39.3833 644.913V641.48L41.0597 640.488L44.5081 641.387C44.5665 641.398 44.6271 641.398 44.6855 641.387C44.9955 641.386 45.2682 641.184 45.3533 640.89C45.399 640.718 45.3728 640.535 45.2806 640.381C45.1884 640.227 45.0381 640.116 44.8626 640.072L42.7361 639.509L45.7759 637.806L51.0919 639.147H51.269C51.5793 639.147 51.8519 638.944 51.9368 638.651C51.9825 638.478 51.9563 638.295 51.8641 638.141C51.7722 637.988 51.6216 637.877 51.4464 637.833L47.4527 636.774L50.7515 634.896L50.7512 634.896C51.0339 634.694 51.1151 634.314 50.9395 634.017C50.7637 633.719 50.3882 633.601 50.0697 633.743L46.7709 635.607L47.8476 631.678V631.677C47.9456 631.307 47.7198 630.929 47.3435 630.833C46.9671 630.736 46.5825 630.958 46.4846 631.329L45.0533 636.559L42.0138 638.289L42.5865 636.197C42.6318 636.024 42.6056 635.841 42.5137 635.688C42.4215 635.534 42.2712 635.423 42.0957 635.379C41.922 635.326 41.7336 635.346 41.576 635.435C41.4181 635.524 41.3052 635.674 41.2641 635.848L40.3374 639.241L38.661 640.193L35.7438 638.637V636.747L38.2655 634.252C38.5289 633.993 38.5289 633.573 38.2655 633.314C38.002 633.054 37.5748 633.054 37.3113 633.314L35.7438 634.842V631.383L39.6285 627.547C39.892 627.288 39.892 626.868 39.6285 626.609C39.365 626.349 38.9379 626.349 38.6744 626.609L35.7438 629.478V625.737C35.7438 625.367 35.4386 625.066 35.0622 625.066C34.6859 625.066 34.3807 625.367 34.3807 625.737V629.478L31.4501 626.609C31.1866 626.349 30.7594 626.349 30.4959 626.609C30.2324 626.868 30.2324 627.288 30.4959 627.547L34.3807 631.383V634.842L32.8132 633.314C32.5497 633.054 32.1225 633.054 31.859 633.314C31.5955 633.573 31.5955 633.993 31.859 634.252L34.3807 636.747V638.637L31.4227 640.327L29.7462 639.375L28.8195 635.982V635.982C28.7784 635.808 28.6652 635.658 28.5076 635.569C28.3497 635.48 28.1617 635.46 27.988 635.513C27.8124 635.557 27.6621 635.668 27.5699 635.822C27.4777 635.975 27.4516 636.158 27.4972 636.331L28.0698 638.423L25.03 636.693L23.5988 631.463C23.5011 631.093 23.1165 630.87 22.7402 630.967C22.3638 631.063 22.1381 631.441 22.2357 631.812L23.3125 635.741L20.0685 633.877C19.7499 633.735 19.3742 633.854 19.1986 634.151C19.0231 634.448 19.1043 634.828 19.387 635.03L22.6858 636.907L18.7054 637.967C18.5299 638.011 18.3796 638.122 18.2874 638.276C18.1955 638.429 18.1693 638.612 18.2147 638.785C18.2999 639.078 18.5725 639.281 18.8825 639.281H19.0596L24.3756 637.94L27.4151 639.67L25.2886 640.233H25.2889C25.1137 640.277 24.963 640.389 24.8712 640.542C24.779 640.695 24.7528 640.879 24.7984 641.051C24.8833 641.345 25.1559 641.547 25.4663 641.547C25.5247 641.559 25.5849 641.559 25.6434 641.547L29.0648 640.488L30.7412 641.427V644.806L29.0648 645.852L25.6163 644.953C25.2397 644.857 24.8554 645.079 24.7574 645.45C24.6598 645.82 24.8855 646.198 25.2619 646.294L27.3884 646.858L24.3486 648.534L19.0326 647.193C18.6693 647.105 18.299 647.311 18.1876 647.662C18.142 647.835 18.1681 648.018 18.2603 648.171C18.3522 648.325 18.5028 648.436 18.6781 648.48L22.6717 649.54L19.3729 651.417H19.3732C19.1104 651.57 18.9835 651.877 19.0629 652.168C19.1423 652.458 19.4085 652.661 19.714 652.664C19.8521 652.639 19.9772 652.568 20.0685 652.463L23.3673 650.599L22.2905 654.528L22.2902 654.528C22.2449 654.701 22.271 654.884 22.3629 655.037C22.4551 655.191 22.6054 655.302 22.781 655.346H22.9584C23.2651 655.344 23.5328 655.141 23.6125 654.85L25.0437 649.62L28.0833 647.89L27.5106 649.982L27.5109 649.982C27.4653 650.155 27.4915 650.338 27.5837 650.491C27.6755 650.645 27.8261 650.756 28.0017 650.8C28.0598 650.814 28.1207 650.814 28.1788 650.8C28.4855 650.799 28.7532 650.595 28.8329 650.304L29.7597 646.911L31.4361 645.959L34.3941 647.649V649.54L31.8724 652.034L31.8727 652.034C31.6093 652.293 31.6093 652.713 31.8727 652.973C32.1362 653.232 32.5634 653.232 32.8269 652.973L34.3944 651.444V654.904L30.5097 658.739C30.2462 658.998 30.2462 659.418 30.5097 659.678C30.7732 659.937 31.2003 659.937 31.4638 659.678L34.3944 656.808V660.603C34.3944 660.973 34.6996 661.273 35.076 661.273C35.4523 661.273 35.7575 660.973 35.7575 660.603V656.862L38.6881 659.731C38.8116 659.861 38.9845 659.934 39.1652 659.934C39.3459 659.934 39.5184 659.861 39.6423 659.731C39.774 659.61 39.8489 659.44 39.8489 659.262C39.8489 659.084 39.774 658.914 39.6423 658.792L35.7438 654.957V651.498L37.3113 653.026C37.4349 653.156 37.6077 653.229 37.7884 653.229C37.9691 653.229 38.142 653.156 38.2655 653.026C38.3972 652.905 38.4721 652.735 38.4721 652.557C38.4721 652.379 38.3972 652.209 38.2655 652.087L35.7438 649.593V647.702L38.7018 646.013L40.3783 646.965L41.305 650.357V650.358C41.385 650.649 41.6528 650.852 41.9594 650.854C42.0176 650.868 42.0784 650.868 42.1365 650.854C42.3121 650.81 42.4624 650.699 42.5546 650.545C42.6468 650.391 42.6729 650.208 42.6273 650.036L42.0547 647.944L45.0942 649.674L46.5254 654.903H46.5257C46.6054 655.195 46.8732 655.398 47.1799 655.4H47.3572C47.5325 655.355 47.6831 655.244 47.775 655.091C47.8672 654.937 47.8933 654.754 47.8477 654.582L46.771 650.653L50.056 652.463C50.1577 652.527 50.2763 652.559 50.3968 652.557C50.7026 652.554 50.9688 652.351 51.0479 652.06C51.1273 651.77 51.0005 651.463 50.7376 651.31L47.4388 649.432L51.4191 648.373C51.5947 648.329 51.745 648.218 51.8372 648.064C51.9291 647.911 51.9552 647.727 51.9099 647.555C51.7988 647.216 51.4465 647.014 51.092 647.086L51.0919 647.086ZM38.0204 644.86L35.0623 646.536L32.1043 644.86V641.48L35.0623 639.804L38.0204 641.48V644.86Z" fill="#FB8273"/>
<path d="M98.5785 802.523C117.909 802.523 133.579 786.853 133.579 767.523C133.579 748.193 117.909 732.523 98.5785 732.523C79.2485 732.523 63.5785 748.193 63.5785 767.523C63.5785 786.853 79.2485 802.523 98.5785 802.523Z" fill="#E8F4FF"/>
<path fill-rule="evenodd" clip-rule="evenodd" d="M95.1527 765.305C95.0264 765.305 94.9007 765.25 94.8151 765.143C93.803 763.884 93.1397 762.028 92.9455 759.916C92.7606 757.899 93.041 755.916 93.7149 754.475C95.8092 749.997 99.8436 749.449 101.481 749.421C104.114 749.376 106.521 750.458 107.333 752.052C107.83 753.026 107.692 754.11 106.944 755.105C106.915 755.143 106.88 755.176 106.84 755.203C101.431 758.863 100.21 762.145 99.9365 763.385C99.8855 763.619 99.6546 763.766 99.4205 763.715C99.1866 763.663 99.0393 763.432 99.0903 763.198C99.3852 761.861 100.678 758.345 106.293 754.526C106.81 753.81 106.9 753.11 106.561 752.444C105.904 751.155 103.773 750.248 101.495 750.286C100.02 750.311 96.3869 750.805 94.5002 754.841C93.1813 757.661 93.6525 762.312 95.4907 764.6C95.6404 764.786 95.611 765.059 95.4246 765.208C95.3443 765.273 95.2485 765.304 95.1531 765.304L95.1527 765.305Z" fill="#FB8273" stroke="#FB8273" stroke-width="0.675844"/>
<path fill-rule="evenodd" clip-rule="evenodd" d="M98.5852 763.621C98.2467 763.621 97.9053 763.666 97.5701 763.756C96.5639 764.025 95.7231 764.67 95.203 765.572C94.6819 766.474 94.5435 767.525 94.8135 768.531C95.3701 770.607 97.5117 771.843 99.5878 771.288C101.665 770.731 102.901 768.589 102.345 766.513C102.076 765.506 101.43 764.666 100.529 764.145C99.928 763.799 99.2609 763.622 98.5858 763.621L98.5852 763.621ZM98.5798 772.286C96.4759 772.286 94.5462 770.881 93.9762 768.755C93.647 767.525 93.8162 766.241 94.4522 765.138C95.0885 764.037 96.1164 763.248 97.3451 762.918C98.5748 762.589 99.859 762.758 100.961 763.394C102.064 764.03 102.852 765.059 103.181 766.288C103.861 768.826 102.35 771.444 99.8125 772.123C99.4005 772.234 98.9867 772.286 98.5802 772.286L98.5798 772.286Z" fill="#FB8273" stroke="#FB8273" stroke-width="0.675844"/>
<path fill-rule="evenodd" clip-rule="evenodd" d="M89.7581 773.21C88.1761 773.21 86.6803 772.923 85.5303 772.385C81.0522 770.291 80.5042 766.257 80.4763 764.621C80.4319 761.986 81.5133 759.58 83.1066 758.768C84.0811 758.271 85.1655 758.409 86.1595 759.157C86.1978 759.186 86.2319 759.221 86.2579 759.26C89.9187 764.67 93.2002 765.89 94.4414 766.164C94.6747 766.216 94.8226 766.447 94.7707 766.681C94.7197 766.914 94.4886 767.061 94.2547 767.01C92.9169 766.715 89.4013 765.423 85.5826 759.808C84.866 759.29 84.1659 759.2 83.5003 759.539C82.2108 760.196 81.3039 762.327 81.3421 764.605C81.367 766.08 81.8611 769.714 85.8968 771.601C88.7174 772.92 93.3684 772.448 95.6554 770.61C95.8418 770.46 96.1148 770.49 96.2644 770.677C96.4141 770.863 96.3847 771.136 96.1983 771.285C94.9387 772.297 93.0829 772.962 90.9712 773.155C90.5645 773.192 90.1582 773.211 89.7575 773.211L89.7581 773.21Z" fill="#FB8273" stroke="#FB8273" stroke-width="0.675844"/>
<path fill-rule="evenodd" clip-rule="evenodd" d="M95.5191 785.626C92.9472 785.626 90.6198 784.555 89.8234 782.994C89.3273 782.019 89.4654 780.935 90.2138 779.941C90.2425 779.902 90.2769 779.869 90.3169 779.842C95.7266 776.183 96.9471 772.901 97.2209 771.659C97.2722 771.426 97.503 771.278 97.7369 771.33C97.9707 771.381 98.118 771.612 98.067 771.846C97.7725 773.184 96.4797 776.699 90.8646 780.518C90.3471 781.234 90.257 781.935 90.5961 782.601C91.2534 783.89 93.3823 784.796 95.6622 784.758C97.137 784.733 100.77 784.239 102.657 780.203C103.976 777.383 103.505 772.732 101.667 770.445C101.517 770.258 101.546 769.985 101.733 769.836C101.919 769.686 102.192 769.715 102.342 769.902C103.354 771.161 104.017 773.018 104.211 775.129C104.396 777.146 104.116 779.129 103.442 780.57C101.348 785.048 97.3133 785.597 95.6758 785.624C95.6239 785.625 95.571 785.626 95.5191 785.626Z" fill="#FB8273" stroke="#FB8273" stroke-width="0.675844"/>
<path fill-rule="evenodd" clip-rule="evenodd" d="M112.858 776.57C112.234 776.57 111.599 776.34 110.996 775.888C110.959 775.859 110.925 775.824 110.899 775.784C107.238 770.374 103.956 769.154 102.715 768.88C102.481 768.829 102.334 768.598 102.386 768.364C102.437 768.13 102.668 767.983 102.902 768.034C104.24 768.329 107.755 769.621 111.574 775.236C112.29 775.754 112.991 775.845 113.656 775.505C114.945 774.849 115.853 772.717 115.814 770.439C115.789 768.965 115.295 765.331 111.26 763.444C108.44 762.125 103.788 762.597 101.501 764.434C101.315 764.584 101.042 764.555 100.892 764.368C100.742 764.182 100.772 763.909 100.958 763.759C102.218 762.748 104.074 762.084 106.185 761.89C108.202 761.705 110.186 761.985 111.627 762.659C116.105 764.753 116.653 768.788 116.681 770.425C116.725 773.059 115.644 775.466 114.05 776.278C113.666 776.474 113.265 776.571 112.859 776.571L112.858 776.57Z" fill="#FB8273" stroke="#FB8273" stroke-width="0.675844"/>
<path fill-rule="evenodd" clip-rule="evenodd" d="M98.2118 766.157C97.4585 766.359 97.0086 767.136 97.211 767.891C97.4134 768.645 98.1908 769.094 98.9451 768.892C99.6984 768.689 100.148 767.912 99.9459 767.158C99.7438 766.404 98.9661 765.955 98.2118 766.157V766.157ZM98.5787 769.807C97.5711 769.807 96.647 769.133 96.3738 768.115C96.0483 766.9 96.7724 765.646 97.9876 765.32C99.2027 764.995 100.457 765.718 100.783 766.933C101.108 768.149 100.384 769.403 99.1689 769.728C98.9721 769.781 98.7732 769.806 98.5785 769.806L98.5787 769.807Z" fill="#FB8273" stroke="#FB8273" stroke-width="0.675844"/>
<path d="M559.517 514.615C578.843 514.615 594.517 498.954 594.517 479.615C594.517 460.277 578.843 444.615 559.517 444.615C540.191 444.615 524.517 460.289 524.517 479.615C524.517 498.941 540.191 514.615 559.517 514.615Z" fill="#E8F4FF"/>
<path d="M575.059 469.868L576.971 469.585L576.116 471.319C574.489 474.619 571.736 479.511 568.2 483.443C564.722 487.311 560.257 490.497 555.2 489.878C555.176 489.944 555.151 490.012 555.126 490.081C554.93 490.606 554.666 491.259 554.318 491.865C553.98 492.455 553.506 493.101 552.847 493.506C552.124 493.951 551.252 494.057 550.329 493.655L549.268 493.193L549.867 492.202C550.237 491.589 550.672 491.068 551.073 490.618C551.218 490.456 551.353 490.309 551.479 490.17C551.571 490.07 551.659 489.974 551.743 489.88C551.611 489.541 551.497 489.203 551.397 488.908C551.337 488.729 551.282 488.565 551.231 488.427C551.071 487.988 550.934 487.723 550.798 487.557C548.746 487.24 547.185 486.295 546.087 484.876C544.953 483.411 544.369 481.519 544.14 479.48C543.683 475.414 544.597 470.429 545.898 466.051L546.47 464.128L547.679 465.729C549.319 467.901 551.635 471.419 553.067 475.192C553.58 476.545 553.994 477.968 554.211 479.396C555.251 477.867 556.699 476.556 558.386 475.439C562.818 472.504 569.139 470.743 575.059 469.868Z" stroke="#50AD65" stroke-width="2.02753"/>
<path d="M477.064 69.9102C496.39 69.9102 512.064 54.2487 512.064 34.9102C512.064 15.5716 496.39 -0.0898438 477.064 -0.0898438C457.738 -0.0898438 442.064 15.584 442.064 34.9102C442.064 54.2363 457.738 69.9102 477.064 69.9102Z" fill="#E8F4FF"/>
<path d="M492.606 25.163L494.518 24.8803L493.663 26.6142C492.036 29.9138 489.283 34.806 485.747 38.7375C482.269 42.6055 477.804 45.7919 472.748 45.1729C472.724 45.2391 472.699 45.3072 472.673 45.3762C472.478 45.9009 472.213 46.5538 471.866 47.1595C471.527 47.7495 471.053 48.3957 470.394 48.8011C469.671 49.2459 468.799 49.352 467.876 48.9502L466.815 48.4877L467.414 47.4966C467.784 46.8836 468.219 46.3625 468.62 45.9133C468.765 45.7505 468.9 45.6034 469.026 45.4654C469.118 45.3647 469.206 45.2689 469.29 45.1753C469.158 44.836 469.044 44.4982 468.944 44.2026C468.884 44.0238 468.829 43.8604 468.778 43.7215C468.618 43.2831 468.481 43.018 468.345 42.8522C466.293 42.535 464.732 41.5898 463.634 40.171C462.5 38.7063 461.917 36.8137 461.687 34.7747C461.23 30.7091 462.144 25.7237 463.446 21.3458L464.017 19.4229L465.226 21.0239C466.866 23.1956 469.182 26.7138 470.614 30.4868C471.127 31.8397 471.541 33.263 471.758 34.6907C472.798 33.1617 474.247 31.8513 475.933 30.7344C480.365 27.799 486.686 26.0378 492.606 25.163Z" stroke="#50AD65" stroke-width="2.02753"/>
<rect x="396.107" y="348.645" width="70" height="70" rx="35" fill="#F8F9FF"/>
<path d="M431.107 418.645C450.443 418.645 466.107 402.968 466.107 383.645C466.107 364.321 450.431 348.645 431.107 348.645C411.783 348.645 396.107 364.308 396.107 383.645C396.107 402.981 411.783 418.645 431.107 418.645Z" fill="#E8F4FF"/>
<g clip-path="url(#clip1_671_2101)">
<path d="M441.356 389.622L425.341 373.607C424.749 373.014 423.788 373.014 423.196 373.607C422.604 374.199 422.604 375.159 423.196 375.752L423.962 376.517C420.227 380.252 417.179 386.019 421.419 391.394L416.367 396.446L418.517 398.596L423.569 393.544C428.944 397.784 434.711 394.735 438.446 391.001L439.211 391.767C439.804 392.359 440.764 392.359 441.356 391.767C441.948 391.174 441.948 390.214 441.356 389.622L441.356 389.622Z" stroke="#62BDFD" stroke-width="2.02753"/>
<path d="M437.275 372.135C437.868 371.541 437.868 370.579 437.275 369.985C436.681 369.391 435.719 369.391 435.125 369.985L430.184 374.926L432.334 377.076L437.275 372.135Z" stroke="#62BDFD" stroke-width="2.02753"/>
<path d="M444.782 379.644C445.376 379.05 445.376 378.087 444.782 377.494C444.188 376.9 443.226 376.9 442.632 377.494L437.691 382.435L439.842 384.585L444.782 379.644Z" stroke="#62BDFD" stroke-width="2.02753"/>
</g>
<path d="M185.1 802.523C204.426 802.523 220.1 786.862 220.1 767.523C220.1 748.185 204.426 732.523 185.1 732.523C165.773 732.523 150.1 748.185 150.1 767.523C150.1 786.862 165.773 802.523 185.1 802.523Z" fill="#E8F4FF"/>
<path d="M194.607 777.107H191.954C191.709 777.107 191.511 777.302 191.511 777.542C191.511 777.782 191.709 777.978 191.954 777.978H193.467C191.092 779.949 188.084 781.026 184.878 781.026C177.564 781.026 171.612 775.165 171.612 767.961C171.612 767.721 171.415 767.525 171.17 767.525C170.925 767.525 170.728 767.721 170.728 767.961C170.728 775.645 177.076 781.897 184.878 781.897C188.352 781.897 191.611 780.708 194.165 778.535V780.155C194.165 780.395 194.362 780.591 194.607 780.591C194.852 780.591 195.049 780.395 195.049 780.155V777.542C195.049 777.302 194.852 777.107 194.607 777.107H194.607Z" fill="#50AD65" stroke="#50AD65" stroke-width="1.08135"/>
<path d="M185.321 753.152C181.847 753.152 178.589 754.341 176.034 756.514V754.894C176.034 754.654 175.837 754.459 175.592 754.459C175.348 754.459 175.15 754.654 175.15 754.894V757.507C175.15 757.748 175.348 757.943 175.592 757.943H178.245C178.49 757.943 178.688 757.748 178.688 757.507C178.688 757.267 178.49 757.072 178.245 757.072H176.732C179.107 755.1 182.115 754.023 185.321 754.023C192.636 754.023 198.587 759.885 198.587 767.089C198.587 767.329 198.785 767.524 199.029 767.524C199.274 767.524 199.471 767.329 199.471 767.089C199.471 759.404 193.123 753.152 185.321 753.152H185.321Z" fill="#50AD65" stroke="#50AD65" stroke-width="1.08135"/>
<path d="M168.852 328.082C188.178 328.082 203.852 312.421 203.852 293.082C203.852 273.743 188.19 258.082 168.852 258.082C149.513 258.082 133.852 273.743 133.852 293.082C133.852 312.421 149.526 328.082 168.852 328.082Z" fill="#E8F4FF"/>
<path d="M172.041 310.527C172.041 309.344 172.519 308.711 172.902 308.202C173.238 307.757 173.503 307.405 173.503 306.649C173.503 305.891 173.238 305.54 172.902 305.094C172.518 304.586 172.041 303.952 172.041 302.77C172.041 301.588 172.519 300.954 172.902 300.446C173.238 300.001 173.503 299.65 173.503 298.894C173.503 298.138 173.238 297.786 172.902 297.341C172.519 296.833 172.041 296.199 172.041 295.017C172.041 293.835 172.519 293.202 172.902 292.693C173.238 292.248 173.503 291.897 173.503 291.141C173.503 290.385 173.238 290.034 172.902 289.589C172.519 289.081 172.041 288.448 172.041 287.266C172.041 286.084 172.519 285.45 172.902 284.942C173.238 284.497 173.503 284.146 173.503 283.391C173.503 282.635 173.238 282.283 172.902 281.839C172.519 281.33 172.041 280.697 172.041 279.515C172.041 278.333 172.519 277.7 172.902 277.191C173.238 276.747 173.503 276.395 173.503 275.64C173.503 275.275 173.812 274.979 174.195 274.979C174.577 274.979 174.886 275.275 174.886 275.64C174.886 276.822 174.409 277.455 174.025 277.963C173.689 278.408 173.424 278.759 173.424 279.515C173.424 280.271 173.689 280.622 174.025 281.067C174.409 281.575 174.886 282.208 174.886 283.391C174.886 284.572 174.409 285.205 174.025 285.714C173.689 286.158 173.424 286.51 173.424 287.265C173.424 288.021 173.689 288.373 174.025 288.817C174.409 289.326 174.886 289.958 174.886 291.14C174.886 292.323 174.409 292.956 174.025 293.464C173.689 293.909 173.424 294.261 173.424 295.016C173.424 295.773 173.689 296.124 174.025 296.569C174.409 297.078 174.886 297.711 174.886 298.893C174.886 300.075 174.409 300.708 174.025 301.217C173.689 301.662 173.424 302.013 173.424 302.769C173.424 303.526 173.689 303.878 174.025 304.322C174.409 304.831 174.886 305.465 174.886 306.648C174.886 307.83 174.409 308.464 174.025 308.973C173.689 309.418 173.424 309.77 173.424 310.526C173.424 310.891 173.115 311.186 172.733 311.186C172.35 311.188 172.041 310.892 172.041 310.527Z" fill="#50DBBA" stroke="#50DBBA" stroke-width="0.405506"/>
<path d="M167.429 310.527C167.429 309.344 167.907 308.711 168.29 308.202C168.626 307.757 168.891 307.405 168.891 306.649C168.891 305.891 168.626 305.54 168.29 305.094C167.907 304.586 167.429 303.952 167.429 302.77C167.429 301.588 167.907 300.954 168.291 300.446C168.627 300.001 168.891 299.65 168.891 298.894C168.891 298.138 168.627 297.786 168.291 297.341C167.907 296.833 167.429 296.199 167.429 295.017C167.429 293.835 167.907 293.202 168.29 292.693C168.626 292.248 168.891 291.897 168.891 291.141C168.891 290.385 168.627 290.034 168.291 289.589C167.907 289.081 167.429 288.448 167.429 287.266C167.429 286.084 167.907 285.45 168.291 284.942C168.626 284.497 168.891 284.146 168.891 283.391C168.891 282.635 168.627 282.283 168.291 281.839C167.907 281.33 167.429 280.697 167.429 279.515C167.429 278.333 167.907 277.7 168.291 277.191C168.626 276.747 168.891 276.395 168.891 275.64C168.891 275.275 169.201 274.979 169.583 274.979C169.965 274.979 170.275 275.275 170.275 275.64C170.275 276.822 169.797 277.455 169.413 277.963C169.077 278.408 168.812 278.759 168.812 279.515C168.812 280.271 169.078 280.622 169.413 281.067C169.797 281.575 170.275 282.208 170.275 283.391C170.275 284.572 169.797 285.205 169.413 285.714C169.077 286.158 168.812 286.51 168.812 287.265C168.812 288.021 169.078 288.373 169.413 288.817C169.797 289.326 170.275 289.958 170.275 291.14C170.275 292.323 169.797 292.956 169.413 293.464C169.077 293.909 168.812 294.261 168.812 295.016C168.812 295.773 169.078 296.124 169.413 296.569C169.797 297.078 170.275 297.711 170.275 298.893C170.275 300.075 169.797 300.708 169.413 301.217C169.077 301.662 168.812 302.013 168.812 302.769C168.812 303.526 169.077 303.878 169.413 304.322C169.797 304.831 170.275 305.465 170.275 306.648C170.275 307.83 169.797 308.464 169.413 308.973C169.078 309.418 168.812 309.77 168.812 310.526C168.812 310.891 168.503 311.186 168.121 311.186C167.739 311.188 167.429 310.892 167.429 310.527Z" fill="#50DBBA" stroke="#50DBBA" stroke-width="0.405506"/>
<path d="M162.817 310.527C162.817 309.344 163.295 308.711 163.679 308.202C164.014 307.757 164.279 307.405 164.279 306.649C164.279 305.891 164.014 305.54 163.679 305.094C163.295 304.586 162.817 303.952 162.817 302.77C162.817 301.588 163.295 300.954 163.679 300.446C164.015 300.001 164.279 299.65 164.279 298.894C164.279 298.138 164.015 297.786 163.679 297.341C163.295 296.833 162.817 296.199 162.817 295.017C162.817 293.835 163.295 293.202 163.679 292.693C164.014 292.248 164.279 291.897 164.279 291.141C164.279 290.385 164.015 290.034 163.679 289.589C163.295 289.081 162.817 288.448 162.817 287.266C162.817 286.084 163.295 285.45 163.679 284.942C164.015 284.497 164.279 284.146 164.279 283.391C164.279 282.635 164.015 282.283 163.679 281.839C163.295 281.33 162.817 280.697 162.817 279.515C162.817 278.333 163.295 277.7 163.679 277.191C164.015 276.747 164.279 276.395 164.279 275.64C164.279 275.275 164.589 274.979 164.971 274.979C165.353 274.979 165.663 275.275 165.663 275.64C165.663 276.822 165.185 277.455 164.801 277.963C164.465 278.408 164.201 278.759 164.201 279.515C164.201 280.271 164.465 280.622 164.801 281.067C165.185 281.575 165.663 282.208 165.663 283.391C165.663 284.572 165.185 285.205 164.801 285.714C164.465 286.158 164.201 286.51 164.201 287.265C164.201 288.021 164.465 288.373 164.801 288.817C165.185 289.326 165.663 289.958 165.663 291.14C165.663 292.323 165.185 292.956 164.801 293.464C164.465 293.909 164.201 294.261 164.201 295.016C164.201 295.773 164.466 296.124 164.802 296.569C165.185 297.078 165.663 297.711 165.663 298.893C165.663 300.075 165.185 300.708 164.801 301.217C164.465 301.662 164.201 302.013 164.201 302.769C164.201 303.526 164.466 303.878 164.802 304.322C165.185 304.831 165.663 305.465 165.663 306.648C165.663 307.83 165.185 308.464 164.802 308.973C164.466 309.418 164.201 309.77 164.201 310.526C164.201 310.891 163.891 311.186 163.509 311.186C163.127 311.188 162.817 310.892 162.817 310.527Z" fill="#50DBBA" stroke="#50DBBA" stroke-width="0.405506"/>
</g>
<defs>
<clipPath id="clip0_671_2101">
<rect width="689" height="803" fill="white"/>
</clipPath>
<clipPath id="clip1_671_2101">
<rect width="30.625" height="30.625" fill="white" transform="translate(415.786 368.47)"/>
</clipPath>
</defs>
</svg>
