<svg width="320" height="134" viewBox="0 0 320 134" fill="none" xmlns="http://www.w3.org/2000/svg">
<g clip-path="url(#clip0_1240_3788)">
<path d="M90 110.645C101.044 110.645 110 101.775 110 90.8227C110 79.8701 101.051 71 90 71C78.9494 71 70 79.8771 70 90.8227C70 101.768 78.9565 110.645 90 110.645Z" fill="#E8F4FF"/>
<path d="M95.6651 100.393H84.3351V85.0693H95.6342V100.393H95.6651ZM84.9508 99.8035H95.0803V85.6587H84.9508V99.8035Z" fill="#50DBBA" stroke="#50DBBA" stroke-width="0.396454"/>
<path d="M83.1035 99.8027H96.8966V100.392H83.1035V99.8027Z" fill="#50DBBA" stroke="#50DBBA" stroke-width="0.396454"/>
<path d="M94.1563 85.658H85.8435V83.3936H94.1869V85.658H94.1563ZM86.4286 85.0686H93.5715V84.0139H86.4286V85.0686Z" fill="#50DBBA" stroke="#50DBBA" stroke-width="0.396454"/>
<path d="M91.3547 81.2529H91.9399V83.7034H91.3547V81.2529Z" fill="#50DBBA" stroke="#50DBBA" stroke-width="0.396454"/>
<path d="M88.3991 81.8418H88.9843V83.703H88.3991V81.8418Z" fill="#50DBBA" stroke="#50DBBA" stroke-width="0.396454"/>
<path d="M92.0936 100.392H87.9064V96.0488H92.0627V100.392H92.0936ZM88.5222 99.8022H91.5087V96.6382H88.5222V99.8022Z" fill="#50DBBA" stroke="#50DBBA" stroke-width="0.396454"/>
<path d="M88.1218 88.853H85.8435V86.5576H88.1218V88.853ZM86.4284 88.2637H87.5368V87.147H86.4284V88.2637Z" fill="#50DBBA" stroke="#50DBBA" stroke-width="0.396454"/>
<path d="M91.1394 88.853H88.8611V86.5576H91.1394V88.853ZM89.4461 88.2637H90.5544V87.147H89.4461V88.2637Z" fill="#50DBBA" stroke="#50DBBA" stroke-width="0.396454"/>
<path d="M94.1563 88.853H91.878V86.5576H94.1563V88.853ZM92.4937 88.2637H93.6021V87.147H92.4937V88.2637Z" fill="#50DBBA" stroke="#50DBBA" stroke-width="0.396454"/>
<path d="M88.1218 91.9234H85.8435V89.6279H88.1218V91.9234ZM86.4284 91.334H87.5368V90.2173H86.4284V91.334Z" fill="#50DBBA" stroke="#50DBBA" stroke-width="0.396454"/>
<path d="M91.1394 91.9234H88.8611V89.6279H91.1394V91.9234ZM89.4461 91.334H90.5544V90.2173H89.4461V91.334Z" fill="#50DBBA" stroke="#50DBBA" stroke-width="0.396454"/>
<path d="M94.1563 91.9234H91.878V89.6279H94.1563V91.9234ZM92.4937 91.334H93.6021V90.2173H92.4937V91.334Z" fill="#50DBBA" stroke="#50DBBA" stroke-width="0.396454"/>
<path d="M88.1218 94.9946H85.8435V92.6992H88.1218V94.9946ZM86.4284 94.4053H87.5368V93.2886H86.4284V94.4053Z" fill="#50DBBA" stroke="#50DBBA" stroke-width="0.396454"/>
<path d="M91.1394 94.9946H88.8611V92.6992H91.1394V94.9946ZM89.4461 94.4053H90.5544V93.2886H89.4461V94.4053Z" fill="#50DBBA" stroke="#50DBBA" stroke-width="0.396454"/>
<path d="M94.1563 94.9946H91.878V92.6992H94.1563V94.9946ZM92.4937 94.4053H93.6021V93.2886H92.4937V94.4053Z" fill="#50DBBA" stroke="#50DBBA" stroke-width="0.396454"/>
<rect x="140" width="40" height="40" rx="20" fill="#F8F9FF"/>
<path d="M160 40C171.048 40 180 31.0479 180 20C180 8.95213 171.048 0 160 0C148.952 0 140 8.95213 140 20C140 31.0479 148.952 40 160 40Z" fill="#E8F4FF"/>
<path d="M160 10.2543C159.974 10.2543 159.956 10.263 159.944 10.273C159.793 10.4074 157.869 12.1316 155.986 14.5098C155.044 15.6998 154.123 17.0408 153.439 18.4174C152.753 19.7986 152.324 21.1795 152.324 22.4594C152.324 26.4483 155.74 29.744 160 29.744C164.259 29.744 167.676 26.4483 167.676 22.4594C167.676 21.1795 167.247 19.7986 166.561 18.4174C165.877 17.0408 164.956 15.6998 164.014 14.5099C162.131 12.1309 160.205 10.4064 160.055 10.2732L160 10.2543ZM160 10.2543C160.025 10.2543 160.044 10.263 160.055 10.2729L160 10.2543ZM154.179 21.4815C154.179 25.0035 157.114 27.8405 160.69 27.8405C161.361 27.8405 161.955 27.3145 161.955 26.6067C161.955 25.8985 161.36 25.3731 160.69 25.3731C158.484 25.3731 156.709 23.6157 156.709 21.4815C156.709 20.7733 156.115 20.2479 155.444 20.2479C154.773 20.2479 154.179 20.7733 154.179 21.4815Z" stroke="#62BDFD" stroke-width="1.2"/>
<path d="M230 64C241.044 64 250 55.0506 250 44C250 32.9494 241.051 24 230 24C218.949 24 210 32.9565 210 44C210 55.0435 218.957 64 230 64Z" fill="#E8F4FF"/>
<path d="M239.16 46.2367L236.122 47.003L234.385 46.0146L235.6 45.6927H235.6C235.815 45.6376 235.944 45.4215 235.888 45.2098C235.832 44.9982 235.613 44.8713 235.398 44.9264L233.427 45.5317L232.469 44.9953V43.0336L233.427 42.4666L235.398 42.9801C235.431 42.9867 235.466 42.9867 235.499 42.9801C235.676 42.9799 235.832 42.8641 235.881 42.6965C235.907 42.5979 235.892 42.4933 235.839 42.4055C235.786 42.3178 235.7 42.2543 235.6 42.229L234.385 41.9071L236.122 40.934L239.16 41.7003H239.261C239.438 41.7001 239.594 41.5845 239.643 41.4167C239.669 41.3182 239.654 41.2135 239.601 41.1257C239.549 41.038 239.462 40.9745 239.362 40.9494L237.08 40.3441L238.965 39.2713L238.965 39.2711C239.127 39.1557 239.173 38.9386 239.073 38.7687C238.972 38.5989 238.758 38.5313 238.576 38.6122L236.691 39.6773L237.306 37.4322V37.432C237.362 37.2205 237.233 37.0044 237.018 36.9494C236.803 36.8943 236.583 37.0212 236.527 37.233L235.709 40.2215L233.972 41.2099L234.3 40.0145C234.325 39.916 234.31 39.8113 234.258 39.7235C234.205 39.6358 234.119 39.5723 234.019 39.547C233.92 39.5167 233.812 39.5284 233.722 39.5793C233.632 39.6301 233.567 39.7157 233.544 39.8152L233.014 41.7538L232.056 42.2979L230.389 41.4092V40.3287L231.83 38.9033C231.981 38.7552 231.981 38.5151 231.83 38.3669C231.68 38.2188 231.436 38.2188 231.285 38.3669L230.389 39.2405V37.2635L232.609 35.0719C232.76 34.9238 232.76 34.6836 232.609 34.5355C232.459 34.3874 232.215 34.3874 232.064 34.5355L230.389 36.1753V34.0374C230.389 33.8259 230.215 33.6543 230 33.6543C229.785 33.6543 229.611 33.8259 229.611 34.0374V36.1753L227.936 34.5355C227.785 34.3874 227.541 34.3874 227.391 34.5355C227.24 34.6836 227.24 34.9238 227.391 35.0719L229.611 37.2635V39.2405L228.715 38.3669C228.564 38.2188 228.32 38.2188 228.17 38.3669C228.019 38.5151 228.019 38.7552 228.17 38.9033L229.611 40.3287V41.4092L227.92 42.3747L226.962 41.8306L226.433 39.892V39.8918C226.409 39.7923 226.345 39.7068 226.254 39.656C226.164 39.605 226.057 39.5934 225.958 39.6236C225.857 39.649 225.771 39.7124 225.719 39.8002C225.666 39.8879 225.651 39.9926 225.677 40.0911L226.004 41.2866L224.267 40.2981L223.449 37.3096C223.394 37.0978 223.174 36.9709 222.959 37.026C222.744 37.0811 222.615 37.2971 222.671 37.5087L223.286 39.7538L221.432 38.6889C221.25 38.608 221.035 38.6755 220.935 38.8454C220.835 39.0152 220.881 39.2323 221.043 39.3478L222.928 40.4205L220.653 41.026C220.553 41.0512 220.467 41.1146 220.414 41.2024C220.362 41.2901 220.347 41.3948 220.373 41.4933C220.421 41.6611 220.577 41.7768 220.754 41.7769H220.856L223.893 41.0106L225.63 41.9991L224.415 42.321H224.415C224.315 42.3462 224.229 42.4098 224.177 42.4974C224.124 42.5851 224.109 42.6898 224.135 42.7885C224.183 42.9561 224.339 43.0717 224.517 43.0719C224.55 43.0787 224.584 43.0787 224.618 43.0719L226.573 42.4666L227.531 43.003V44.9341L226.573 45.5317L224.602 45.0182C224.387 44.9633 224.167 45.0902 224.112 45.3018C224.056 45.5134 224.185 45.7296 224.4 45.7845L225.615 46.1064L223.878 47.0642L220.84 46.298C220.633 46.248 220.421 46.3654 220.357 46.5662C220.331 46.6647 220.346 46.7694 220.399 46.8571C220.451 46.9449 220.537 47.0083 220.638 47.0336L222.92 47.6389L221.035 48.7117H221.035C220.885 48.7995 220.812 48.9748 220.858 49.1407C220.903 49.3066 221.055 49.4226 221.23 49.4243C221.309 49.41 221.38 49.3694 221.432 49.3094L223.317 48.2443L222.702 50.4894L222.702 50.4896C222.676 50.5881 222.691 50.6928 222.743 50.7805C222.796 50.8683 222.882 50.9317 222.982 50.9569H223.083C223.259 50.956 223.412 50.8399 223.457 50.6735L224.275 47.6849L226.012 46.6965L225.685 47.8919L225.685 47.8918C225.659 47.9905 225.674 48.0951 225.727 48.1829C225.779 48.2705 225.865 48.3341 225.965 48.3592C225.999 48.3674 226.033 48.3674 226.067 48.3592C226.242 48.3584 226.395 48.2422 226.44 48.0758L226.97 46.1372L227.928 45.5931L229.618 46.5586V47.6391L228.177 49.0645L228.177 49.0643C228.027 49.2124 228.027 49.4526 228.177 49.6007C228.328 49.7488 228.572 49.7488 228.723 49.6007L229.618 48.7272V50.7041L227.399 52.8957C227.248 53.0438 227.248 53.284 227.399 53.4321C227.549 53.5802 227.793 53.5802 227.944 53.4321L229.618 51.7923V53.9608C229.618 54.1724 229.793 54.344 230.008 54.344C230.223 54.344 230.397 54.1724 230.397 53.9608V51.8229L232.072 53.4627C232.143 53.5368 232.241 53.5789 232.345 53.5789C232.448 53.5789 232.546 53.5368 232.617 53.4627C232.692 53.3933 232.735 53.2961 232.735 53.1945C232.735 53.0929 232.692 52.9958 232.617 52.9263L230.389 50.7347V48.7578L231.285 49.6313C231.356 49.7054 231.455 49.7475 231.558 49.7475C231.661 49.7475 231.76 49.7054 231.83 49.6313C231.906 49.5619 231.948 49.4647 231.948 49.3631C231.948 49.2615 231.906 49.1644 231.83 49.0949L230.389 47.6696V46.5891L232.08 45.6235L233.038 46.1676L233.567 48.1062V48.1064C233.613 48.2728 233.766 48.389 233.941 48.3898C233.974 48.398 234.009 48.398 234.042 48.3898C234.143 48.3647 234.229 48.3012 234.281 48.2135C234.334 48.1257 234.349 48.0211 234.323 47.9225L233.996 46.7271L235.733 47.7156L236.55 50.7041H236.551C236.596 50.8705 236.749 50.9866 236.924 50.9877H237.026C237.126 50.9623 237.212 50.8989 237.264 50.8111C237.317 50.7234 237.332 50.6187 237.306 50.5202L236.691 48.2751L238.568 49.3094C238.626 49.3458 238.694 49.3645 238.763 49.3631C238.937 49.3614 239.089 49.2454 239.135 49.0795C239.18 48.9134 239.108 48.7381 238.957 48.6505L237.072 47.5777L239.347 46.9722C239.447 46.9471 239.533 46.8836 239.586 46.7959C239.638 46.7081 239.653 46.6034 239.627 46.5049C239.564 46.3111 239.362 46.1955 239.16 46.2367L239.16 46.2367ZM231.69 44.9647L230 45.9225L228.31 44.9647V43.0335L230 42.0757L231.69 43.0335V44.9647Z" fill="#FB8273"/>
<path d="M300 88C311.046 88 320 79.0457 320 68C320 56.9543 311.046 48 300 48C288.954 48 280 56.9543 280 68C280 79.0457 288.954 88 300 88Z" fill="#E8F4FF"/>
<path fill-rule="evenodd" clip-rule="evenodd" d="M298.042 66.7324C297.97 66.7324 297.898 66.701 297.85 66.6401C297.271 65.9203 296.892 64.8598 296.781 63.6531C296.676 62.5006 296.836 61.3671 297.221 60.5437C298.418 57.9848 300.723 57.672 301.659 57.656C303.163 57.6303 304.539 58.2486 305.003 59.1591C305.287 59.7159 305.208 60.3351 304.78 60.9036C304.764 60.9255 304.744 60.9444 304.721 60.9598C301.63 63.0512 300.932 64.9265 300.776 65.6352C300.747 65.7689 300.615 65.853 300.481 65.8239C300.348 65.7943 300.263 65.6623 300.292 65.5287C300.461 64.7642 301.2 62.7553 304.408 60.5732C304.704 60.1637 304.755 59.7637 304.562 59.3834C304.186 58.6468 302.968 58.1283 301.667 58.1501C300.824 58.1647 298.748 58.4467 297.67 60.7528C296.916 62.3645 297.185 65.0224 298.236 66.3295C298.321 66.4361 298.304 66.5917 298.198 66.6772C298.152 66.7141 298.097 66.7318 298.043 66.7318L298.042 66.7324Z" fill="#FB8273" stroke="#FB8273" stroke-width="0.4"/>
<path fill-rule="evenodd" clip-rule="evenodd" d="M300.004 65.771C299.81 65.771 299.615 65.7964 299.424 65.8479C298.849 66.0016 298.368 66.3703 298.071 66.8857C297.773 67.4012 297.694 68.0016 297.849 68.5765C298.167 69.7629 299.39 70.4694 300.577 70.1519C301.764 69.8338 302.47 68.6098 302.152 67.4232C301.998 66.8482 301.63 66.3678 301.114 66.0706C300.771 65.8724 300.39 65.7712 300.004 65.771L300.004 65.771ZM300.001 70.7226C298.798 70.7226 297.696 69.9195 297.37 68.7043C297.182 68.0019 297.279 67.2679 297.642 66.6379C298.006 66.0083 298.593 65.5575 299.295 65.3694C299.998 65.1811 300.732 65.2778 301.362 65.6414C301.992 66.0048 302.442 66.5923 302.63 67.2948C303.019 68.745 302.155 70.2409 300.705 70.6292C300.47 70.6924 300.233 70.7226 300.001 70.7224L300.001 70.7226Z" fill="#FB8273" stroke="#FB8273" stroke-width="0.4"/>
<path fill-rule="evenodd" clip-rule="evenodd" d="M294.96 71.2493C294.056 71.2493 293.201 71.0852 292.544 70.778C289.985 69.5812 289.672 67.2764 289.656 66.3411C289.63 64.8358 290.248 63.4608 291.159 62.9966C291.716 62.7126 292.335 62.7917 292.903 63.2191C292.925 63.2354 292.945 63.2557 292.96 63.2781C295.052 66.3693 296.927 67.0667 297.636 67.2232C297.769 67.2529 297.854 67.3848 297.824 67.5184C297.795 67.6515 297.663 67.7359 297.529 67.7066C296.765 67.5381 294.756 66.7998 292.574 63.5909C292.164 63.2952 291.764 63.2437 291.384 63.4374C290.647 63.8129 290.129 65.0304 290.151 66.3324C290.165 67.1751 290.447 69.2514 292.753 70.3298C294.365 71.0835 297.023 70.8137 298.33 69.7635C298.436 69.678 298.592 69.6953 298.678 69.8018C298.763 69.9083 298.746 70.064 298.64 70.1495C297.92 70.7279 296.86 71.1074 295.653 71.2178C295.421 71.2393 295.188 71.2497 294.959 71.2497L294.96 71.2493Z" fill="#FB8273" stroke="#FB8273" stroke-width="0.4"/>
<path fill-rule="evenodd" clip-rule="evenodd" d="M298.252 78.344C296.782 78.344 295.452 77.7324 294.997 76.8401C294.714 76.2832 294.792 75.6635 295.22 75.0955C295.237 75.0735 295.256 75.0547 295.279 75.0393C298.37 72.9479 299.068 71.0727 299.224 70.363C299.254 70.2297 299.385 70.1456 299.519 70.1749C299.653 70.204 299.737 70.3364 299.708 70.4697C299.539 71.2342 298.801 73.2431 295.592 75.4252C295.296 75.8347 295.245 76.2353 295.439 76.6154C295.814 77.352 297.031 77.8702 298.334 77.8482C299.176 77.834 301.252 77.5517 302.331 75.2455C303.084 73.6341 302.815 70.9759 301.765 69.6692C301.679 69.5625 301.696 69.4067 301.802 69.3212C301.909 69.2357 302.065 69.2524 302.15 69.3589C302.729 70.0787 303.108 71.1395 303.219 72.3459C303.324 73.4987 303.164 74.6319 302.779 75.4553C301.582 78.0141 299.277 78.3274 298.341 78.3433C298.312 78.3436 298.281 78.344 298.252 78.344Z" fill="#FB8273" stroke="#FB8273" stroke-width="0.4"/>
<path fill-rule="evenodd" clip-rule="evenodd" d="M308.16 73.1695C307.803 73.1695 307.441 73.0384 307.096 72.7798C307.074 72.7631 307.055 72.7432 307.04 72.7205C304.948 69.6293 303.073 68.9319 302.364 68.7754C302.23 68.7461 302.146 68.6144 302.176 68.4806C302.205 68.3469 302.337 68.2628 302.47 68.2919C303.235 68.4607 305.244 69.199 307.426 72.4076C307.835 72.7031 308.235 72.7553 308.616 72.561C309.352 72.1859 309.871 70.9681 309.849 69.6661C309.835 68.8239 309.552 66.7476 307.246 65.669C305.635 64.9151 302.977 65.1851 301.67 66.235C301.564 66.3205 301.408 66.3037 301.322 66.1972C301.236 66.0905 301.253 65.9347 301.36 65.8492C302.08 65.2712 303.14 64.8918 304.347 64.7809C305.499 64.6752 306.633 64.8354 307.456 65.2205C310.015 66.4172 310.328 68.7226 310.344 69.6583C310.37 71.1632 309.752 72.5386 308.841 73.0028C308.622 73.1146 308.392 73.17 308.16 73.17L308.16 73.1695Z" fill="#FB8273" stroke="#FB8273" stroke-width="0.4"/>
<path fill-rule="evenodd" clip-rule="evenodd" d="M299.79 67.2188C299.36 67.3345 299.103 67.7787 299.219 68.2097C299.334 68.6407 299.778 68.8973 300.209 68.7816C300.64 68.666 300.897 68.2217 300.781 67.7912C300.666 67.3602 300.221 67.1037 299.79 67.2188V67.2188ZM300 69.3046C299.424 69.3046 298.896 68.9197 298.74 68.3378C298.554 67.6434 298.968 66.927 299.662 66.7409C300.357 66.5548 301.073 66.9682 301.26 67.6625C301.446 68.3574 301.032 69.0736 300.337 69.2597C300.225 69.2897 300.111 69.3045 300 69.3045L300 69.3046Z" fill="#FB8273" stroke="#FB8273" stroke-width="0.4"/>
<path d="M230 111C241.044 111 250 102.051 250 91C250 79.9494 241.051 71 230 71C218.949 71 210 79.9494 210 91C210 102.051 218.957 111 230 111Z" fill="#E8F4FF"/>
<path d="M231.822 100.968C231.822 100.292 232.095 99.9304 232.314 99.6397C232.506 99.3851 232.658 99.1841 232.658 98.7519C232.658 98.3192 232.506 98.1183 232.314 97.8638C232.095 97.573 231.822 97.2111 231.822 96.5353C231.822 95.8599 232.095 95.498 232.315 95.2073C232.507 94.9532 232.658 94.7525 232.658 94.3206C232.658 93.8888 232.506 93.6875 232.315 93.4334C232.095 93.1428 231.822 92.7807 231.822 92.1053C231.822 91.4299 232.095 91.068 232.315 90.7773C232.507 90.523 232.658 90.3223 232.658 89.8903C232.658 89.4586 232.506 89.2578 232.315 89.0038C232.095 88.7132 231.822 88.3515 231.822 87.6759C231.822 87.0005 232.095 86.6387 232.315 86.3481C232.507 86.094 232.658 85.8932 232.658 85.4616C232.658 85.0297 232.506 84.8288 232.315 84.5749C232.095 84.2843 231.822 83.9226 231.822 83.2471C231.822 82.5717 232.095 82.2098 232.315 81.9192C232.507 81.6651 232.658 81.4644 232.658 81.0325C232.658 80.8241 232.835 80.6553 233.053 80.6553C233.271 80.6553 233.448 80.8241 233.448 81.0325C233.448 81.7079 233.175 82.0698 232.956 82.3604C232.764 82.6145 232.613 82.8152 232.613 83.2471C232.613 83.6789 232.764 83.8798 232.956 84.1337C233.175 84.4243 233.448 84.786 233.448 85.4616C233.448 86.137 233.175 86.4985 232.956 86.7891C232.764 87.0432 232.613 87.2439 232.613 87.6757C232.613 88.1076 232.764 88.3085 232.956 88.5624C233.175 88.853 233.448 89.2147 233.448 89.8899C233.448 90.5657 233.175 90.9273 232.956 91.2181C232.764 91.4721 232.613 91.6731 232.613 92.1047C232.613 92.5371 232.764 92.7379 232.956 92.9923C233.176 93.2829 233.448 93.6449 233.448 94.3203C233.448 94.9957 233.175 95.3575 232.956 95.6483C232.764 95.9024 232.613 96.1031 232.613 96.5349C232.613 96.9673 232.764 97.1684 232.956 97.4227C233.175 97.7134 233.448 98.0758 233.448 98.7514C233.448 99.4271 233.175 99.7892 232.956 100.08C232.764 100.335 232.613 100.535 232.613 100.968C232.613 101.176 232.436 101.345 232.218 101.345C231.999 101.346 231.822 101.176 231.822 100.968Z" fill="#50DBBA" stroke="#50DBBA" stroke-width="0.237873"/>
<path d="M229.187 100.968C229.187 100.292 229.46 99.9304 229.679 99.6397C229.871 99.3851 230.023 99.1841 230.023 98.7519C230.023 98.3192 229.871 98.1183 229.679 97.8638C229.46 97.573 229.187 97.2111 229.187 96.5353C229.187 95.8599 229.46 95.498 229.679 95.2073C229.871 94.9532 230.023 94.7525 230.023 94.3206C230.023 93.8888 229.871 93.6875 229.679 93.4334C229.46 93.1428 229.187 92.7807 229.187 92.1053C229.187 91.4299 229.46 91.068 229.679 90.7773C229.871 90.523 230.023 90.3223 230.023 89.8903C230.023 89.4586 229.871 89.2578 229.679 89.0038C229.46 88.7132 229.187 88.3515 229.187 87.6759C229.187 87.0005 229.46 86.6387 229.679 86.3481C229.871 86.094 230.023 85.8932 230.023 85.4616C230.023 85.0297 229.871 84.8288 229.679 84.5749C229.46 84.2843 229.187 83.9226 229.187 83.2471C229.187 82.5717 229.46 82.2098 229.679 81.9192C229.871 81.6651 230.023 81.4644 230.023 81.0325C230.023 80.8241 230.199 80.6553 230.418 80.6553C230.636 80.6553 230.813 80.8241 230.813 81.0325C230.813 81.7079 230.54 82.0698 230.321 82.3604C230.129 82.6145 229.978 82.8152 229.978 83.2471C229.978 83.6789 230.129 83.8798 230.321 84.1337C230.54 84.4243 230.813 84.786 230.813 85.4616C230.813 86.137 230.54 86.4985 230.321 86.7891C230.129 87.0432 229.978 87.2439 229.978 87.6757C229.978 88.1076 230.129 88.3085 230.321 88.5624C230.54 88.853 230.813 89.2147 230.813 89.8899C230.813 90.5657 230.54 90.9273 230.321 91.2181C230.129 91.4721 229.978 91.6731 229.978 92.1047C229.978 92.5371 230.129 92.7379 230.321 92.9923C230.54 93.2829 230.813 93.6449 230.813 94.3203C230.813 94.9957 230.54 95.3575 230.321 95.6483C230.129 95.9024 229.978 96.1031 229.978 96.5349C229.978 96.9673 230.129 97.1684 230.321 97.4227C230.54 97.7134 230.813 98.0758 230.813 98.7514C230.813 99.4271 230.54 99.7892 230.321 100.08C230.129 100.335 229.978 100.535 229.978 100.968C229.978 101.176 229.8 101.345 229.582 101.345C229.364 101.346 229.187 101.176 229.187 100.968Z" fill="#50DBBA" stroke="#50DBBA" stroke-width="0.237873"/>
<path d="M226.552 100.968C226.552 100.292 226.825 99.9304 227.044 99.6397C227.236 99.3851 227.387 99.1841 227.387 98.7519C227.387 98.3192 227.236 98.1183 227.044 97.8638C226.825 97.573 226.552 97.2111 226.552 96.5353C226.552 95.8599 226.825 95.498 227.044 95.2073C227.236 94.9532 227.387 94.7525 227.387 94.3206C227.387 93.8888 227.236 93.6875 227.044 93.4334C226.825 93.1428 226.552 92.7807 226.552 92.1053C226.552 91.4299 226.825 91.068 227.044 90.7773C227.236 90.523 227.387 90.3223 227.387 89.8903C227.387 89.4586 227.236 89.2578 227.044 89.0038C226.825 88.7132 226.552 88.3515 226.552 87.6759C226.552 87.0005 226.825 86.6387 227.044 86.3481C227.236 86.094 227.387 85.8932 227.387 85.4616C227.387 85.0297 227.236 84.8288 227.044 84.5749C226.825 84.2843 226.552 83.9226 226.552 83.2471C226.552 82.5717 226.825 82.2098 227.044 81.9192C227.236 81.6651 227.387 81.4644 227.387 81.0325C227.387 80.8241 227.564 80.6553 227.782 80.6553C228.001 80.6553 228.178 80.8241 228.178 81.0325C228.178 81.7079 227.905 82.0698 227.685 82.3604C227.493 82.6145 227.342 82.8152 227.342 83.2471C227.342 83.6789 227.493 83.8798 227.685 84.1337C227.905 84.4243 228.178 84.786 228.178 85.4616C228.178 86.137 227.905 86.4985 227.685 86.7891C227.493 87.0432 227.342 87.2439 227.342 87.6757C227.342 88.1076 227.493 88.3085 227.685 88.5624C227.905 88.853 228.178 89.2147 228.178 89.8899C228.178 90.5657 227.905 90.9273 227.685 91.2181C227.493 91.4721 227.342 91.6731 227.342 92.1047C227.342 92.5371 227.494 92.7379 227.686 92.9923C227.905 93.2829 228.178 93.6449 228.178 94.3203C228.178 94.9957 227.905 95.3575 227.685 95.6483C227.493 95.9024 227.342 96.1031 227.342 96.5349C227.342 96.9673 227.494 97.1684 227.686 97.4227C227.905 97.7134 228.178 98.0758 228.178 98.7514C228.178 99.4271 227.905 99.7892 227.686 100.08C227.494 100.335 227.342 100.535 227.342 100.968C227.342 101.176 227.165 101.345 226.947 101.345C226.729 101.346 226.552 101.176 226.552 100.968Z" fill="#50DBBA" stroke="#50DBBA" stroke-width="0.237873"/>
<path d="M90 64C101.044 64 110 55.0506 110 44C110 32.9494 101.044 24 90 24C78.9565 24 70 32.9565 70 44C70 55.0435 78.9565 64 90 64Z" fill="#E8F4FF"/>
<path d="M98.8778 38.4097L100.01 38.2424L99.5037 39.2686C98.5736 41.1548 96.9994 43.9523 94.9772 46.2009C92.9922 48.4082 90.4406 50.2331 87.5473 49.887C87.5353 49.92 87.5229 49.9537 87.5101 49.9878C87.3984 50.288 87.2468 50.6623 87.0474 51.0099C86.8532 51.3483 86.5805 51.721 86.1996 51.9553C85.7807 52.213 85.2751 52.2743 84.7417 52.0419L84.1134 51.7681L84.4677 51.1816C84.6803 50.8296 84.9299 50.5307 85.1592 50.2737C85.2427 50.1802 85.3198 50.0959 85.3921 50.017C85.4414 49.9631 85.4885 49.9116 85.5338 49.8614C85.4597 49.6704 85.3958 49.4808 85.34 49.3151C85.3058 49.2134 85.2746 49.1207 85.2459 49.0422C85.1563 48.7972 85.0805 48.6497 85.0068 48.5576C83.8329 48.3743 82.9389 47.8322 82.3092 47.0189C81.6581 46.1778 81.3239 45.0922 81.1926 43.9249C80.9308 41.5976 81.4539 38.7457 82.1982 36.243L82.5366 35.105L83.2521 36.0525C84.1898 37.2943 85.5142 39.3065 86.3334 41.465C86.6209 42.2225 86.8541 43.0193 86.9805 43.8199C87.5744 42.9618 88.3929 42.2253 89.3421 41.5966C91.8784 39.9168 95.4942 38.9098 98.8778 38.4097Z" stroke="#50AD65" stroke-width="1.2"/>
<rect y="48" width="40" height="40" rx="20" fill="#F8F9FF"/>
<path d="M20 88C31.0493 88 40 79.0422 40 68C40 56.9577 31.0423 48 20 48C8.95775 48 0 56.9507 0 68C0 79.0493 8.95775 88 20 88Z" fill="#E8F4FF"/>
<g clip-path="url(#clip1_1240_3788)">
<path d="M25.8569 71.4148L16.7053 62.2633C16.3669 61.9248 15.8181 61.9248 15.4797 62.2633C15.1412 62.6017 15.1412 63.1505 15.4797 63.489L15.9173 63.9266C13.7832 66.0606 12.0414 69.3561 14.4641 72.4275L11.5775 75.314L12.8061 76.5426L15.6928 73.6559C18.7643 76.0786 22.0599 74.3366 24.1937 72.2028L24.6313 72.6404C24.9698 72.9789 25.5186 72.9788 25.857 72.6404C26.1953 72.3019 26.1953 71.7531 25.8568 71.4147L25.8569 71.4148Z" stroke="#62BDFD" stroke-width="1.2"/>
<path d="M23.5246 61.4227C23.8638 61.0835 23.8638 60.5335 23.5246 60.1943C23.1854 59.8551 22.6354 59.8551 22.2962 60.1943L19.4729 63.0176L20.7014 64.2462L23.5246 61.4227Z" stroke="#62BDFD" stroke-width="1.2"/>
<path d="M27.8145 65.7128C28.1537 65.3735 28.1537 64.8235 27.8145 64.4843C27.4753 64.1451 26.9253 64.1451 26.5861 64.4843L23.7628 67.3077L24.9913 68.5362L27.8145 65.7128Z" stroke="#62BDFD" stroke-width="1.2"/>
</g>
<path d="M160 134C171.044 134 180 125.051 180 114C180 102.949 171.044 94 160 94C148.956 94 140 102.949 140 114C140 125.051 148.956 134 160 134Z" fill="#E8F4FF"/>
<path d="M165.433 119.477H163.917C163.777 119.477 163.664 119.588 163.664 119.726C163.664 119.863 163.777 119.975 163.917 119.975H164.782C163.424 121.101 161.705 121.717 159.874 121.717C155.694 121.717 152.293 118.367 152.293 114.251C152.293 114.113 152.18 114.002 152.04 114.002C151.901 114.002 151.788 114.113 151.788 114.251C151.788 118.642 155.415 122.214 159.874 122.214C161.859 122.214 163.721 121.535 165.18 120.293V121.219C165.18 121.356 165.293 121.468 165.433 121.468C165.573 121.468 165.686 121.356 165.686 121.219V119.726C165.686 119.588 165.573 119.477 165.433 119.477H165.433Z" fill="#50AD65" stroke="#50AD65" stroke-width="0.64"/>
<path d="M160.126 105.789C158.141 105.789 156.279 106.468 154.82 107.71V106.785C154.82 106.647 154.707 106.536 154.567 106.536C154.427 106.536 154.314 106.647 154.314 106.785V108.278C154.314 108.415 154.427 108.527 154.567 108.527H156.083C156.223 108.527 156.336 108.415 156.336 108.278C156.336 108.14 156.223 108.029 156.083 108.029H155.218C156.576 106.902 158.295 106.287 160.126 106.287C164.306 106.287 167.707 109.636 167.707 113.753C167.707 113.89 167.82 114.001 167.96 114.001C168.1 114.001 168.212 113.89 168.212 113.753C168.212 109.362 164.585 105.789 160.126 105.789H160.126Z" fill="#50AD65" stroke="#50AD65" stroke-width="0.64"/>
<path d="M159.376 50.003C157.978 50.0473 156.62 50.2685 155.278 50.6731C152.886 51.3937 150.754 52.5885 148.92 54.3016C145.455 57.535 143.546 61.5364 143.383 66.3659C143.361 67.0265 143.333 67.0455 142.696 67.0455C142.163 67.0455 141.63 67.0455 141 67.0455C142.58 69.4697 144.085 71.7707 145.647 74.1633C147.214 71.7581 148.722 69.4476 150.293 67.036H147.954C148.105 62.2033 150.074 58.4263 154.203 56.2549C160.216 53.0974 165.452 54.6334 169.854 59.7696C170.629 58.5811 171.397 57.3801 172.193 56.198C172.425 55.8535 172.394 55.6417 172.112 55.3351C170.158 53.2238 167.835 51.6972 165.145 50.8027C164.117 50.4613 163.038 50.218 161.953 50.1168C161.953 50.1168 160.549 49.9683 159.382 50.0062M158.047 83.8856C156.978 83.6802 155.883 83.5443 154.855 83.1997C152.165 82.3021 149.845 80.7723 147.885 78.6673C147.6 78.3607 147.575 78.1458 147.807 77.8044C148.6 76.6224 149.368 75.4213 150.133 74.2455C154.745 79.5081 160.11 80.9651 166.271 77.4789C170.459 75.1084 172.262 70.2093 171.939 66.9601H169.707C171.278 64.5485 172.786 62.2381 174.353 59.8359C175.915 62.2286 177.417 64.5296 179 66.9538C178.351 66.9538 177.799 66.9886 177.254 66.9443C176.755 66.9032 176.617 67.1276 176.611 67.5828C176.576 70.6044 175.717 73.3826 174.168 75.9333C172.287 79.0308 169.698 81.3002 166.396 82.7162C164.546 83.5095 162.627 83.9646 160.618 83.9962C159.066 84.0247 158.047 83.8825 158.047 83.8825" fill="#151618"/>
</g>
<defs>
<clipPath id="clip0_1240_3788">
<rect width="320" height="134" fill="white"/>
</clipPath>
<clipPath id="clip1_1240_3788">
<rect width="17.5" height="17.5" fill="white" transform="translate(11.2456 59.3281)"/>
</clipPath>
</defs>
</svg>
