<svg width="209" height="159" fill="none" xmlns="http://www.w3.org/2000/svg"><rect x="22.393" width="224.634" height="40" rx="20" transform="rotate(34.044 22.393 0)" fill="#fff"/><path d="M20.243 42.654l3.233 2.185-4.38-22.27 22.295-4.245-3.233-2.185-22.296 4.245 4.38 22.27z" fill="#D62E2E"/><path d="M30.525 36.737l2.661-.538a33.358 33.358 0 002.365-.585 9.184 9.184 0 001.904-.76c.543-.29.958-.647 1.244-1.071a1.41 1.41 0 00.235-.575 1.21 1.21 0 00-.019-.573 1.334 1.334 0 00-.263-.525 1.8 1.8 0 00-.48-.46 1.797 1.797 0 00-.607-.275 1.315 1.315 0 00-.55-.043 1.462 1.462 0 00-.467.148c-.13.079-.238.18-.321.304a2.44 2.44 0 00-.378.845 2.52 2.52 0 00-.001.83l-1.906.277c-.172-.297-.253-.654-.242-1.071.02-.411.09-.809.208-1.193.132-.386.27-.686.413-.898.329-.486.775-.86 1.339-1.123.572-.257 1.21-.354 1.914-.29.713.07 1.44.355 2.183.856.61.413 1.047.908 1.313 1.486.266.579.37 1.177.313 1.795a3.357 3.357 0 01-.574 1.678c-.269.398-.59.74-.965 1.028a6.503 6.503 0 01-1.26.752c-.452.21-.934.399-1.446.567-.507.16-1.029.322-1.566.488l-.704-.843 3.261 2.203-1.254 1.856-6.35-4.29zm19.156.14l-9.213 6.578-2.148-1.451 7.555-5.323.47.646-3.857-2.606 1.254-1.856 5.94 4.012zm-.7 12.329l6.861-10.155.014.01.227 11.352-.697-.74 10.48-3.85.026.018-6.862 10.155-1.922-1.299 3.932-5.82-.552 1.075-6.472 2.463-.027-.018-.223-6.986.95-.691-3.879 5.74-1.856-1.254zm18.899-1.443l1.922 1.3-6.592 9.757-1.923-1.299 6.593-9.758zm6.051 18.88l-2.883-11.68.355.703-3.991 5.993-1.949-1.317L72.316 50.2l.079.054L75.137 61.8l-.299-.472 4.072-6.113 1.936 1.308-6.862 10.156-.053-.036zm6.729-1.285c-.209.31-.316.668-.321 1.076a2.62 2.62 0 00.263 1.182c.19.386.466.701.829.946.397.269.81.42 1.24.452.428.032.826-.034 1.194-.197.377-.157.67-.39.879-.7l4.156-6.152 1.896 1.281-4.183 6.191c-.484.716-1.09 1.233-1.82 1.551-.724.31-1.494.42-2.31.332-.81-.097-1.582-.393-2.315-.888a5.166 5.166 0 01-1.675-1.808 4.577 4.577 0 01-.541-2.258c.022-.795.276-1.551.76-2.267l4.182-6.191 1.923 1.298-4.156 6.152zm11.526-1.173l6.576 4.443-1.254 1.856-2.373-1.603-5.339 7.901-1.922-1.298 5.339-7.902-2.28-1.54 1.253-1.857zm14.657 10.155c.699.471 1.215.993 1.548 1.566.34.565.493 1.157.46 1.778-.025.627-.249 1.255-.673 1.882-.257.38-.568.717-.934 1.01-.36.285-.769.492-1.229.619-.444.124-.929.138-1.455.04s-1.081-.344-1.664-.738l-1.419-.959-2.383 3.527-1.285-.87 6.476-9.584 2.558 1.728zm-3.128 4.915c.381.256.736.407 1.067.45.331.044.63.02.897-.07.273-.099.512-.233.717-.404.205-.17.364-.34.478-.507.131-.195.235-.414.31-.66.082-.253.104-.515.067-.784a1.793 1.793 0 00-.283-.81c-.152-.27-.401-.522-.746-.754l-1.484-1.004-2.428 3.593 1.405.95zm10.735.223c.486.329.887.697 1.204 1.104.332.404.562.836.689 1.296.142.456.172.927.089 1.411-.068.482-.266.966-.595 1.452-.257.38-.565.713-.925.997-.35.291-.756.5-1.215.627-.453.119-.95.13-1.491.035-.526-.097-1.09-.35-1.691-.755l-1.418-.959-2.383 3.527-1.286-.87 6.476-9.585 2.546 1.72zm-3.128 4.916c.38.256.732.411 1.057.463.334.059.632.047.893-.034.266-.09.502-.22.708-.39a2.6 2.6 0 00.496-.535c.131-.194.23-.417.297-.668a1.92 1.92 0 00.076-.798 1.941 1.941 0 00-.275-.823c-.152-.27-.396-.518-.732-.745l-1.485-1.004-2.427 3.593 1.392.94zm1.085 1.795l-.218 5.723-1.484-1.003.15-5.71 1.552.99zm.541 6.235l10.934-7.152.079.053-2.568 12.805-1.472-.994 2.255-10.082 1.317.021-9.286 6.2-1.259-.85zm4.906-1.975l3.567 2.41-.328 1.4-4.362-2.947 1.123-.863zm19.138 4.26l-6.476 9.585-1.273-.86 2.84-4.202-5.025-3.395-2.839 4.202-1.286-.868 6.476-9.586 1.286.87-2.813 4.162 5.025 3.395 2.813-4.163 1.272.86zm-4.934 10.627l10.934-7.153.08.054-2.569 12.805-1.472-.995 2.255-10.081 1.318.02-9.287 6.201-1.259-.851zm4.907-1.976l3.566 2.41-.328 1.4-4.362-2.947 1.124-.863zm23.067 6.915l-6.476 9.586-1.273-.86 2.84-4.203-5.025-3.395-2.839 4.203-1.286-.869 6.476-9.585 1.286.869-2.813 4.163 5.025 3.394 2.813-4.163 1.272.86zm2.496 1.687l1.286.869-5.643 8.352 4.866 3.287-.833 1.233-6.152-4.156 6.476-9.585zm1.053 13.648a.78.78 0 01.544-.347c.245-.04.457 0 .633.119.159.108.262.28.308.517a.763.763 0 01-.106.643.795.795 0 01-.575.365.818.818 0 01-.576-.119.91.91 0 01-.365-.517.819.819 0 01.137-.661zm14.438 11.223l-2.332-12.525.308.344-4.783 7.137-1.286-.869 6.673-9.877.066.045 2.235 12.497-.26-.272 4.828-7.204 1.273.86-6.682 9.891-.04-.027zm2.284.075a.779.779 0 01.543-.347.85.85 0 01.634.119c.159.108.262.28.308.517a.763.763 0 01-.106.643.798.798 0 01-.575.365.818.818 0 01-.576-.119.91.91 0 01-.365-.517.814.814 0 01.137-.661z" fill="#4B4D52"/></svg>