<svg width="197" height="171" fill="none" xmlns="http://www.w3.org/2000/svg"><rect x="25.287" width="220.921" height="40" rx="20" transform="rotate(39.211 25.287 0)" fill="#fff"/><path d="M20.135 41.268l3.024 2.467L20.8 21.162l22.588-2.22-3.024-2.468-22.588 2.22 2.358 22.574z" fill="#D62E2E"/><path d="M36.406 29.082l2.467 2.013-6.706 8.219-1.81-1.477 5.29-6.484-.657-.536 1.416-1.735zm-.952 8.474c.35-.43.726-.73 1.126-.898.4-.17.789-.259 1.167-.267a6.4 6.4 0 011.017.045 5.53 5.53 0 01.004-.967c.044-.308.218-.648.522-1.02a2.147 2.147 0 011.12-.738c.45-.114.917-.105 1.4.028.491.125.951.363 1.38.713.43.35.756.754.976 1.209.236.454.35.905.342 1.353 0 .454-.14.855-.424 1.203-.337.413-.66.666-.97.757-.3.1-.63.167-.99.203.096.286.171.616.225.99.06.38.049.783-.037 1.209-.079.417-.29.837-.634 1.258-.392.48-.895.819-1.512 1.017a4.026 4.026 0 01-1.955.12c-.672-.122-1.31-.43-1.913-.921-.603-.493-1.036-1.06-1.298-1.7a3.925 3.925 0 01-.252-1.919c.08-.637.315-1.195.706-1.675zm1.908 1.433c-.195.24-.32.51-.373.811a1.84 1.84 0 00.065.858c.095.27.259.5.49.69.24.195.506.316.799.362.3.038.588.005.865-.1a1.65 1.65 0 00.733-.517c.195-.24.313-.502.352-.786a1.701 1.701 0 00-.052-.848 1.483 1.483 0 00-.458-.704 1.59 1.59 0 00-.788-.375 1.882 1.882 0 00-.89.079 1.626 1.626 0 00-.743.53zm3.494-2.89a.745.745 0 00-.156.596c.04.238.134.418.282.54.15.121.34.174.574.158a.745.745 0 00.552-.272.745.745 0 00.156-.596c-.016-.234-.103-.414-.26-.542-.157-.129-.356-.18-.596-.156a.745.745 0 00-.552.272zm3.549 13.2l7.748-9.496.012.01-.796 11.327-.627-.8 10.783-2.89.025.02-7.748 9.496-1.798-1.467 4.44-5.442-.646 1.021-6.668 1.87-.025-.02.408-6.978 1.007-.603-4.38 5.368-1.735-1.416zm18.952.265l1.798 1.467-7.445 9.124-1.797-1.467 7.444-9.124zm4.326 19.348l-1.82-11.893.291.733-4.514 5.609-1.823-1.487 7.738-9.484.074.06 1.691 11.747-.255-.497 4.606-5.72 1.81 1.476-7.748 9.496-.05-.04zm6.818-.674c-.236.29-.375.637-.417 1.043-.043.406.01.806.156 1.2.154.402.4.741.74 1.018.371.303.77.49 1.194.56.424.072.826.042 1.207-.087.39-.123.702-.33.938-.619l4.694-5.752 1.772 1.447-4.723 5.789c-.546.67-1.197 1.13-1.953 1.38a4.546 4.546 0 01-2.33.123c-.798-.17-1.54-.534-2.226-1.093a5.166 5.166 0 01-1.505-1.951 4.577 4.577 0 01-.335-2.298c.094-.79.414-1.52.96-2.19l4.724-5.789 1.797 1.467-4.693 5.752zm11.584-.13l6.15 5.017-1.417 1.736-2.219-1.81-6.028 7.388-1.798-1.467 6.029-7.388-2.133-1.74 1.416-1.736zM99.769 79.54c.652.534 1.119 1.1 1.4 1.701.288.593.387 1.197.297 1.812-.08.622-.36 1.227-.839 1.814-.29.355-.63.663-1.021.922-.384.251-.81.42-1.28.505-.453.084-.938.053-1.453-.091-.515-.145-1.045-.44-1.59-.885l-1.327-1.083-2.69 3.298-1.203-.981 7.313-8.963 2.393 1.952zm-3.558 4.614c.355.29.696.472 1.022.545.325.073.625.077.899.011.28-.074.53-.186.75-.337.22-.151.394-.306.522-.463.148-.181.271-.391.368-.628.104-.246.15-.504.138-.776a1.793 1.793 0 00-.21-.832c-.127-.283-.351-.555-.674-.818l-1.388-1.133-2.741 3.36 1.314 1.072zm10.67 1.19c.455.37.821.773 1.1 1.208.295.432.484.883.57 1.352.1.467.087.939-.039 1.414-.111.474-.352.938-.723 1.392a4.42 4.42 0 01-1.011.91c-.375.258-.798.43-1.267.515-.462.078-.958.044-1.488-.099-.515-.145-1.054-.447-1.616-.905l-1.326-1.082-2.69 3.297-1.203-.98 7.313-8.964 2.38 1.942zm-3.558 4.614c.356.29.693.475 1.012.557.327.088.624.103.892.046.273-.066.52-.174.74-.325.22-.152.4-.314.542-.487a2.19 2.19 0 00.356-.64 1.89 1.89 0 00.147-.787 1.928 1.928 0 00-.199-.845c-.127-.282-.348-.552-.662-.808l-1.388-1.133-2.741 3.36 1.301 1.062zm.919 1.885l-.732 5.68-1.388-1.132.664-5.674 1.456 1.126zm-.023 6.259l11.534-6.139.075.061-3.712 12.521-1.376-1.122 3.153-9.838 1.311.14-9.807 5.338-1.178-.96zm5.065-1.526l3.335 2.721-.453 1.365-4.079-3.327 1.197-.758zm18.677 5.967l-7.314 8.963-1.19-.971 3.207-3.93-4.699-3.833-3.206 3.93-1.203-.982 7.313-8.963 1.203.981-3.176 3.893 4.698 3.834 3.176-3.893 1.191.971zm-5.872 10.139l11.534-6.139.074.061-3.711 12.521-1.376-1.122 3.153-9.838 1.311.14-9.807 5.338-1.178-.961zm5.065-1.525l3.335 2.721-.453 1.365-4.079-3.328 1.197-.758zm22.351 8.964l-7.313 8.963-1.19-.971 3.206-3.93-4.698-3.833-3.207 3.93-1.202-.981 7.313-8.964 1.202.982-3.176 3.892 4.699 3.834 3.176-3.893 1.19.971zm-5.872 10.139l11.534-6.138.075.06-3.712 12.522-1.376-1.123 3.153-9.838 1.311.14-9.807 5.338-1.178-.961zm5.065-1.525l3.335 2.721-.453 1.365-4.079-3.328 1.197-.758zm10.034-5.009l-2.93.377-.731-.597 2.384-.822 1.277 1.042zm-2.49 14.117c-.594.727-1.24 1.232-1.939 1.515-.691.29-1.384.372-2.079.245-.702-.118-1.373-.418-2.013-.899l.951-1.165c.605.439 1.249.62 1.931.543.684-.061 1.343-.481 1.977-1.258l5.957-7.301 1.203.981-5.988 7.339zm8.321-5.435l5.827 4.754-.941 1.153-4.624-3.773-2.225 2.727 4.128 3.368-.941 1.153-4.128-3.368-2.266 2.777 4.798 3.914-.941 1.153-6-4.895 7.313-8.963z" fill="#4B4D52"/></svg>