<svg width="58" height="77" fill="none" xmlns="http://www.w3.org/2000/svg"><path d="M29 74l-.735.678.735.796.735-.796L29 74zm0 0l.735.678.001-.001.004-.005.016-.016.06-.065.228-.252c.2-.22.492-.544.864-.962a205.93 205.93 0 003.074-3.547c2.542-3 5.933-7.17 9.327-11.836 3.39-4.662 6.799-9.842 9.363-14.863C55.222 38.136 57 33.18 57 29 57 13.541 44.459 1 29 1S1 13.541 1 29c0 4.181 1.778 9.136 4.328 14.13 2.564 5.022 5.972 10.202 9.363 14.864 3.394 4.667 6.785 8.835 9.327 11.836a198.961 198.961 0 003.074 3.547 130.946 130.946 0 001.093 1.214l.06.065.015.016.004.005h0c.001.001.001.001.736-.677z" fill="#D62E2E" stroke="#fff" stroke-width="2"/></svg>