
        <svg xmlns="http://www.w3.org/2000/svg" xmlns:xlink="http://www.w3.org/1999/xlink" version="1.1" width="3200" height="1115.3478648871778" viewBox="0 0 3200 1115.3478648871778">
			
			<g transform="scale(10) translate(10, 10)">
				<defs id="SvgjsDefs1243"/><g id="SvgjsG1244" featureKey="33DNMO-0" transform="matrix(5.343545268124441,0,0,5.343545268124441,-5.343545268124441,-32.061271608746644)" fill="#fff"><path d="M4 15 l0 5 l-3 0 l0 -14 l3 0 l0 4.92 c0.7 -0.74 1.58 -1.02 2.58 -1.02 c2.84 0 4.62 2.44 4.62 5.1 l0 5 l-3 0 l0 -5 c0 -1.36 -0.54 -2.32 -2 -2.32 c-1.44 0 -2.2 0.92 -2.2 2.32 z M16.5645 17.32 c1.46 0 2.3 -0.86 2.3 -2.32 s-0.84 -2.32 -2.3 -2.32 s-2.3 0.86 -2.3 2.32 s0.84 2.32 2.3 2.32 z M16.5645 20.1 c-3.08 0 -5.3 -2.04 -5.3 -5.1 c0 -3.16 2.3 -5.1 5.3 -5.1 c3.1 0 5.3 2.04 5.3 5.1 c0 3.14 -2.32 5.1 -5.3 5.1 z M32.289 15 l0 5 l-3 0 l0 -5 c0 -1.38 -0.64 -2.32 -2.1 -2.32 c-1.44 0 -2.1 0.96 -2.1 2.32 l0 5 l-3 0 l0 -5 c0 -3.08 2.12 -5.1 5.1 -5.1 c3.1 0 5.1 2.12 5.1 5.1 z M35.6335 13.8 c0.3 0.1 0.64 0.18 1 0.22 c0.36 0.06 0.7 0.08 1.02 0.08 c0.4 0 1.42 -0.08 1.42 -0.66 c0 -0.62 -0.88 -0.64 -1.32 -0.64 c-0.88 0 -1.64 0.2 -2.12 1 z M41.293499999999995 16.88 l0 2.8 c-1.12 0.26 -2.24 0.44 -3.4 0.44 c-3.18 0 -5.54 -1.86 -5.54 -5.08 c0 -3.18 2.28 -5.14 5.3 -5.14 c2.06 0 4.44 0.98 4.44 3.32 c0 2.32 -2.52 3.18 -4.46 3.18 c-0.74 0 -1.48 -0.2 -2.16 -0.48 c0.4 1.12 1.6 1.3 2.64 1.3 c0.54 0 1.08 -0.02 1.62 -0.1 c0.5 -0.04 1.08 -0.1 1.56 -0.24 z M41.918 19.68 l0 -2.8 c1.32 0.4 2.98 0.48 4.34 0.48 c0.54 0 0.96 -0.02 1.26 -0.08 c0.28 -0.04 0.42 -0.14 0.42 -0.28 c0 -0.06 -0.02 -0.1 -0.06 -0.16 c-0.2 -0.2 -0.64 -0.3 -0.9 -0.36 s-0.6 -0.14 -1.02 -0.22 c-0.34 -0.06 -0.74 -0.14 -1.2 -0.24 c-1.56 -0.34 -2.76 -1.22 -2.76 -2.9 c0 -2.48 2.42 -3.22 4.46 -3.22 c1.28 0 2.56 0.18 3.82 0.44 l0 2.82 c-1.26 -0.38 -2.68 -0.48 -4 -0.48 c-0.52 0 -0.88 0.02 -1.1 0.08 s-0.34 0.16 -0.34 0.28 c0 0.18 0.18 0.3 0.52 0.36 c0.34 0.08 0.82 0.18 1.4 0.28 c0.52 0.1 1.02 0.2 1.5 0.32 c1.48 0.38 2.54 1.18 2.54 2.78 c0 2.68 -2.7 3.34 -4.86 3.34 c-1.36 0 -2.7 -0.18 -4.02 -0.44 z M56.5625 10.34 l0 2.78 l-2.8 0 l0 1.88 c0 1.54 1.02 2.32 2.5 2.32 c0.18 0 0.34 -0.02 0.48 -0.04 s0.26 -0.04 0.4 -0.06 l0 2.78 c-0.18 0.02 -0.32 0.06 -0.42 0.08 c-0.12 0.02 -0.32 0.02 -0.58 0.02 c-3.02 0 -5.38 -2.06 -5.38 -5.1 l0 -7.4 l3 0 l0 2.74 l2.8 0 z"/></g><g id="SvgjsG1245" featureKey="3zfSVr-0" transform="matrix(0.4667703680912182,0,0,0.4667703680912182,44.85996891182998,82.1993782365996)" fill="#fff"><path d="M3 16.4 l-1.2 3.6 l-1.5 0 l0 -0.6 l4.9 -13.4 l1.7 0 l4.9 13.4 l0 0.6 l-1.5 0 l-1.2 -3.6 l-6.1 0 z M8.6 15.1 l-2.5 -7.3 l-0.1 0 l-2.5 7.3 l5.1 0 z M51.800000000000004 20 l-1.5 0 l0 -14 l6.2 0 c2.1 0 3.5 1.4 3.5 3.3 l0 2.7 c0 1.9 -1.4 3.3 -3.5 3.3 l-4.7 0 l0 4.7 z M56.5 7.300000000000001 l-4.7 0 l0 6.7 l4.7 0 c1.1 0 2 -0.9 2 -2 l0 -2.7 c0 -1.1 -0.9 -2 -2 -2 z M99.60000000000002 16.4 l-1.2 3.6 l-1.5 0 l0 -0.6 l4.9 -13.4 l1.7 0 l4.9 13.4 l0 0.6 l-1.5 0 l-1.2 -3.6 l-6.1 0 z M105.20000000000002 15.1 l-2.5 -7.3 l-0.1 0 l-2.5 7.3 l5.1 0 z M148.40000000000003 20 l-1.5 0 l0 -14 l6.2 0 c2.1 0 3.5 1.4 3.5 3.3 l0 1.9 c0 2.8 -2.7 3.2 -2.7 3.2 l3.1 5 l0 0.6 l-1.5 0 l-3.1 -5.5 l-4 0 l0 5.5 z M153.10000000000002 7.300000000000001 l-4.7 0 l0 5.9 l4.7 0 c1.1 0 2 -0.9 2 -2 l0 -1.9 c0 -1.1 -0.9 -2 -2 -2 z M200.30000000000004 7.300000000000001 l0 12.7 l-1.5 0 l0 -12.7 l-4.4 0 l0 -1.3 l10.3 0 l0 0.9 l-0.4 0.4 l-4 0 z M250.50000000000006 18.1 l-1.5 0 l-4.1 -9.8 l-0.1 0 l-1.4 11.7 l-1.5 0 l0 -0.6 l1.8 -13.4 l1.8 0 l4.2 10.1 l0.1 0 l4.2 -10.1 l1.8 0 l1.8 13.4 l0 0.6 l-1.5 0 l-1.4 -11.7 l-0.1 0 z M297.00000000000006 20 l0 -14 l9.1 0 l0 0.9 l-0.4 0.4 l-7.2 0 l0 4.9 l5.7 0 l0 1.3 l-5.7 0 l0 5.2 l7.6 0 l0 1.3 l-9.1 0 z M353.1000000000001 20 l-6.8 -11.5 l-0.1 0 l0.2 2.6 l0 8.9 l-1.5 0 l0 -14 l1.6 0 l6.8 11.5 l0.1 0 l-0.2 -2.6 l0 -8.9 l1.5 0 l0 14 l-1.6 0 z M399.0000000000001 7.300000000000001 l0 12.7 l-1.5 0 l0 -12.7 l-4.4 0 l0 -1.3 l10.3 0 l0 0.9 l-0.4 0.4 l-4 0 z M440.9000000000001 9.9 l0 -0.6 c0 -1.9 1.4 -3.3 3.5 -3.3 l5.5 0 l0 0.9 l-0.4 0.4 l-5.1 0 c-1.1 0 -2 0.9 -2 2 l0 0.6 c0 1.1 0.6 1.68 1.6 1.9 l3.7 0.8 c1.4 0.3 2.5 1.4 2.5 3.2 l0 0.9 c0 1.9 -1.4 3.3 -3.5 3.3 l-6 0 l0 -1.3 l6 0 c1.1 0 2 -0.9 2 -2 l0 -0.9 c0 -1.1 -0.6 -1.68 -1.6 -1.9 l-3.7 -0.8 c-1.4 -0.3 -2.5 -1.4 -2.5 -3.2 z "/></g>
			</g>
		</svg>
	